ISO-10303-21;
HEADER;
/* Generated by software containing ST-Developer
 * from STEP Tools, Inc. (www.steptools.com) 
 */

FILE_DESCRIPTION(
/* description */ (''),
/* implementation_level */ '2;1');

FILE_NAME(
/* name */ 'Bottom case.step',
/* time_stamp */ '2026-05-19T23:58:04+06:00',
/* author */ (''),
/* organization */ (''),
/* preprocessor_version */ 'ST-DEVELOPER v20.1',
/* originating_system */ 'Autodesk Translation Framework v14.24.0.0',
/* authorisation */ '');

FILE_SCHEMA (('AUTOMOTIVE_DESIGN { 1 0 10303 214 3 1 1 }'));
ENDSEC;

DATA;
#10=MECHANICAL_DESIGN_GEOMETRIC_PRESENTATION_REPRESENTATION('',(#39,#40,
#41,#42,#43,#44,#45),#1092);
#11=ITEM_DEFINED_TRANSFORMATION($,$,#671,#722);
#12=ITEM_DEFINED_TRANSFORMATION($,$,#670,#723);
#13=(
REPRESENTATION_RELATIONSHIP($,$,#1107,#1106)
REPRESENTATION_RELATIONSHIP_WITH_TRANSFORMATION(#11)
SHAPE_REPRESENTATION_RELATIONSHIP()
);
#14=(
REPRESENTATION_RELATIONSHIP($,$,#1106,#1105)
REPRESENTATION_RELATIONSHIP_WITH_TRANSFORMATION(#12)
SHAPE_REPRESENTATION_RELATIONSHIP()
);
#15=CONTEXT_DEPENDENT_SHAPE_REPRESENTATION(#13,#1103);
#16=CONTEXT_DEPENDENT_SHAPE_REPRESENTATION(#14,#1104);
#17=NEXT_ASSEMBLY_USAGE_OCCURRENCE('Case:1','Case:1','Case:1',#1110,#1111,
'Case:1');
#18=NEXT_ASSEMBLY_USAGE_OCCURRENCE('Enclosure (1):1','Enclosure (1):1',
'Enclosure (1):1',#1109,#1110,'Enclosure (1):1');
#19=SHAPE_REPRESENTATION_RELATIONSHIP('SRR','None',#1107,#20);
#20=ADVANCED_BREP_SHAPE_REPRESENTATION('',(#46,#47,#48,#49,#50,#51,#52),
#1091);
#21=FACE_BOUND('',#101,.T.);
#22=FACE_BOUND('',#103,.T.);
#23=FACE_BOUND('',#133,.T.);
#24=CIRCLE('',#678,0.4);
#25=CIRCLE('',#679,0.4);
#26=CIRCLE('',#681,1.25);
#27=CIRCLE('',#682,1.25);
#28=CIRCLE('',#686,1.25);
#29=CIRCLE('',#688,1.25);
#30=CIRCLE('',#691,1.25);
#31=CIRCLE('',#693,1.25);
#32=CIRCLE('',#696,1.25);
#33=CIRCLE('',#698,1.25);
#34=CYLINDRICAL_SURFACE('',#677,0.4);
#35=CYLINDRICAL_SURFACE('',#680,1.25);
#36=CYLINDRICAL_SURFACE('',#687,1.25);
#37=CYLINDRICAL_SURFACE('',#692,1.25);
#38=CYLINDRICAL_SURFACE('',#697,1.25);
#39=STYLED_ITEM('',(#1125),#46);
#40=STYLED_ITEM('',(#1125),#47);
#41=STYLED_ITEM('',(#1125),#48);
#42=STYLED_ITEM('',(#1125),#49);
#43=STYLED_ITEM('',(#1125),#50);
#44=STYLED_ITEM('',(#1125),#51);
#45=STYLED_ITEM('',(#1125),#52);
#46=MANIFOLD_SOLID_BREP('Body1',#650);
#47=MANIFOLD_SOLID_BREP('Body2',#651);
#48=MANIFOLD_SOLID_BREP('Body3',#652);
#49=MANIFOLD_SOLID_BREP('Body4',#653);
#50=MANIFOLD_SOLID_BREP('Body5',#654);
#51=MANIFOLD_SOLID_BREP('Body6',#655);
#52=MANIFOLD_SOLID_BREP('Body7',#656);
#53=FACE_OUTER_BOUND('',#93,.T.);
#54=FACE_OUTER_BOUND('',#94,.T.);
#55=FACE_OUTER_BOUND('',#95,.T.);
#56=FACE_OUTER_BOUND('',#96,.T.);
#57=FACE_OUTER_BOUND('',#97,.T.);
#58=FACE_OUTER_BOUND('',#98,.T.);
#59=FACE_OUTER_BOUND('',#99,.T.);
#60=FACE_OUTER_BOUND('',#100,.T.);
#61=FACE_OUTER_BOUND('',#102,.T.);
#62=FACE_OUTER_BOUND('',#104,.T.);
#63=FACE_OUTER_BOUND('',#105,.T.);
#64=FACE_OUTER_BOUND('',#106,.T.);
#65=FACE_OUTER_BOUND('',#107,.T.);
#66=FACE_OUTER_BOUND('',#108,.T.);
#67=FACE_OUTER_BOUND('',#109,.T.);
#68=FACE_OUTER_BOUND('',#110,.T.);
#69=FACE_OUTER_BOUND('',#111,.T.);
#70=FACE_OUTER_BOUND('',#112,.T.);
#71=FACE_OUTER_BOUND('',#113,.T.);
#72=FACE_OUTER_BOUND('',#114,.T.);
#73=FACE_OUTER_BOUND('',#115,.T.);
#74=FACE_OUTER_BOUND('',#116,.T.);
#75=FACE_OUTER_BOUND('',#117,.T.);
#76=FACE_OUTER_BOUND('',#118,.T.);
#77=FACE_OUTER_BOUND('',#119,.T.);
#78=FACE_OUTER_BOUND('',#120,.T.);
#79=FACE_OUTER_BOUND('',#121,.T.);
#80=FACE_OUTER_BOUND('',#122,.T.);
#81=FACE_OUTER_BOUND('',#123,.T.);
#82=FACE_OUTER_BOUND('',#124,.T.);
#83=FACE_OUTER_BOUND('',#125,.T.);
#84=FACE_OUTER_BOUND('',#126,.T.);
#85=FACE_OUTER_BOUND('',#127,.T.);
#86=FACE_OUTER_BOUND('',#128,.T.);
#87=FACE_OUTER_BOUND('',#129,.T.);
#88=FACE_OUTER_BOUND('',#130,.T.);
#89=FACE_OUTER_BOUND('',#131,.T.);
#90=FACE_OUTER_BOUND('',#132,.T.);
#91=FACE_OUTER_BOUND('',#134,.T.);
#92=FACE_OUTER_BOUND('',#135,.T.);
#93=EDGE_LOOP('',(#413,#414,#415,#416));
#94=EDGE_LOOP('',(#417,#418,#419));
#95=EDGE_LOOP('',(#420,#421,#422,#423));
#96=EDGE_LOOP('',(#424,#425,#426));
#97=EDGE_LOOP('',(#427,#428,#429,#430));
#98=EDGE_LOOP('',(#431,#432,#433,#434));
#99=EDGE_LOOP('',(#435,#436,#437,#438));
#100=EDGE_LOOP('',(#439));
#101=EDGE_LOOP('',(#440));
#102=EDGE_LOOP('',(#441));
#103=EDGE_LOOP('',(#442));
#104=EDGE_LOOP('',(#443));
#105=EDGE_LOOP('',(#444,#445,#446,#447));
#106=EDGE_LOOP('',(#448));
#107=EDGE_LOOP('',(#449));
#108=EDGE_LOOP('',(#450,#451,#452,#453));
#109=EDGE_LOOP('',(#454));
#110=EDGE_LOOP('',(#455));
#111=EDGE_LOOP('',(#456,#457,#458,#459));
#112=EDGE_LOOP('',(#460));
#113=EDGE_LOOP('',(#461,#462,#463,#464));
#114=EDGE_LOOP('',(#465,#466,#467));
#115=EDGE_LOOP('',(#468,#469,#470,#471));
#116=EDGE_LOOP('',(#472,#473,#474));
#117=EDGE_LOOP('',(#475,#476,#477,#478));
#118=EDGE_LOOP('',(#479,#480,#481,#482));
#119=EDGE_LOOP('',(#483,#484,#485,#486));
#120=EDGE_LOOP('',(#487,#488,#489,#490));
#121=EDGE_LOOP('',(#491,#492,#493,#494));
#122=EDGE_LOOP('',(#495,#496,#497,#498));
#123=EDGE_LOOP('',(#499,#500,#501,#502));
#124=EDGE_LOOP('',(#503,#504,#505,#506,#507,#508,#509,#510,#511,#512,#513,
#514));
#125=EDGE_LOOP('',(#515,#516,#517,#518,#519,#520,#521,#522));
#126=EDGE_LOOP('',(#523,#524,#525,#526));
#127=EDGE_LOOP('',(#527,#528,#529,#530));
#128=EDGE_LOOP('',(#531,#532,#533,#534));
#129=EDGE_LOOP('',(#535,#536,#537,#538));
#130=EDGE_LOOP('',(#539,#540,#541,#542));
#131=EDGE_LOOP('',(#543,#544,#545,#546,#547,#548,#549,#550,#551,#552,#553,
#554));
#132=EDGE_LOOP('',(#555,#556,#557,#558));
#133=EDGE_LOOP('',(#559,#560,#561,#562));
#134=EDGE_LOOP('',(#563,#564,#565,#566));
#135=EDGE_LOOP('',(#567,#568,#569,#570,#571,#572,#573,#574));
#136=LINE('',#911,#207);
#137=LINE('',#913,#208);
#138=LINE('',#915,#209);
#139=LINE('',#916,#210);
#140=LINE('',#919,#211);
#141=LINE('',#920,#212);
#142=LINE('',#923,#213);
#143=LINE('',#924,#214);
#144=LINE('',#926,#215);
#145=LINE('',#932,#216);
#146=LINE('',#938,#217);
#147=LINE('',#947,#218);
#148=LINE('',#955,#219);
#149=LINE('',#963,#220);
#150=LINE('',#969,#221);
#151=LINE('',#971,#222);
#152=LINE('',#973,#223);
#153=LINE('',#974,#224);
#154=LINE('',#977,#225);
#155=LINE('',#978,#226);
#156=LINE('',#981,#227);
#157=LINE('',#982,#228);
#158=LINE('',#984,#229);
#159=LINE('',#989,#230);
#160=LINE('',#991,#231);
#161=LINE('',#993,#232);
#162=LINE('',#994,#233);
#163=LINE('',#998,#234);
#164=LINE('',#1000,#235);
#165=LINE('',#1002,#236);
#166=LINE('',#1003,#237);
#167=LINE('',#1006,#238);
#168=LINE('',#1008,#239);
#169=LINE('',#1009,#240);
#170=LINE('',#1013,#241);
#171=LINE('',#1015,#242);
#172=LINE('',#1017,#243);
#173=LINE('',#1018,#244);
#174=LINE('',#1021,#245);
#175=LINE('',#1023,#246);
#176=LINE('',#1024,#247);
#177=LINE('',#1027,#248);
#178=LINE('',#1029,#249);
#179=LINE('',#1030,#250);
#180=LINE('',#1033,#251);
#181=LINE('',#1035,#252);
#182=LINE('',#1037,#253);
#183=LINE('',#1039,#254);
#184=LINE('',#1040,#255);
#185=LINE('',#1041,#256);
#186=LINE('',#1043,#257);
#187=LINE('',#1045,#258);
#188=LINE('',#1046,#259);
#189=LINE('',#1049,#260);
#190=LINE('',#1051,#261);
#191=LINE('',#1052,#262);
#192=LINE('',#1055,#263);
#193=LINE('',#1057,#264);
#194=LINE('',#1058,#265);
#195=LINE('',#1060,#266);
#196=LINE('',#1062,#267);
#197=LINE('',#1066,#268);
#198=LINE('',#1068,#269);
#199=LINE('',#1070,#270);
#200=LINE('',#1071,#271);
#201=LINE('',#1073,#272);
#202=LINE('',#1074,#273);
#203=LINE('',#1076,#274);
#204=LINE('',#1077,#275);
#205=LINE('',#1079,#276);
#206=LINE('',#1081,#277);
#207=VECTOR('',#732,10.);
#208=VECTOR('',#733,10.);
#209=VECTOR('',#734,10.);
#210=VECTOR('',#735,10.);
#211=VECTOR('',#738,10.);
#212=VECTOR('',#739,10.);
#213=VECTOR('',#742,10.);
#214=VECTOR('',#743,10.);
#215=VECTOR('',#746,10.);
#216=VECTOR('',#753,0.4);
#217=VECTOR('',#760,1.25);
#218=VECTOR('',#773,1.25);
#219=VECTOR('',#784,1.25);
#220=VECTOR('',#795,1.25);
#221=VECTOR('',#802,10.);
#222=VECTOR('',#803,10.);
#223=VECTOR('',#804,10.);
#224=VECTOR('',#805,10.);
#225=VECTOR('',#808,10.);
#226=VECTOR('',#809,10.);
#227=VECTOR('',#812,10.);
#228=VECTOR('',#813,10.);
#229=VECTOR('',#816,10.);
#230=VECTOR('',#821,10.);
#231=VECTOR('',#822,10.);
#232=VECTOR('',#823,10.);
#233=VECTOR('',#824,10.);
#234=VECTOR('',#827,10.);
#235=VECTOR('',#828,10.);
#236=VECTOR('',#829,10.);
#237=VECTOR('',#830,10.);
#238=VECTOR('',#833,10.);
#239=VECTOR('',#834,10.);
#240=VECTOR('',#835,10.);
#241=VECTOR('',#838,10.);
#242=VECTOR('',#839,10.);
#243=VECTOR('',#840,10.);
#244=VECTOR('',#841,10.);
#245=VECTOR('',#844,10.);
#246=VECTOR('',#845,10.);
#247=VECTOR('',#846,10.);
#248=VECTOR('',#849,10.);
#249=VECTOR('',#850,10.);
#250=VECTOR('',#851,10.);
#251=VECTOR('',#854,10.);
#252=VECTOR('',#855,10.);
#253=VECTOR('',#856,10.);
#254=VECTOR('',#857,10.);
#255=VECTOR('',#858,10.);
#256=VECTOR('',#859,10.);
#257=VECTOR('',#860,10.);
#258=VECTOR('',#861,10.);
#259=VECTOR('',#862,10.);
#260=VECTOR('',#865,10.);
#261=VECTOR('',#866,10.);
#262=VECTOR('',#867,10.);
#263=VECTOR('',#870,10.);
#264=VECTOR('',#871,10.);
#265=VECTOR('',#872,10.);
#266=VECTOR('',#875,10.);
#267=VECTOR('',#878,10.);
#268=VECTOR('',#881,10.);
#269=VECTOR('',#882,10.);
#270=VECTOR('',#883,10.);
#271=VECTOR('',#884,10.);
#272=VECTOR('',#887,10.);
#273=VECTOR('',#888,10.);
#274=VECTOR('',#891,10.);
#275=VECTOR('',#892,10.);
#276=VECTOR('',#895,10.);
#277=VECTOR('',#898,10.);
#278=VERTEX_POINT('',#909);
#279=VERTEX_POINT('',#910);
#280=VERTEX_POINT('',#912);
#281=VERTEX_POINT('',#914);
#282=VERTEX_POINT('',#918);
#283=VERTEX_POINT('',#922);
#284=VERTEX_POINT('',#929);
#285=VERTEX_POINT('',#931);
#286=VERTEX_POINT('',#935);
#287=VERTEX_POINT('',#937);
#288=VERTEX_POINT('',#943);
#289=VERTEX_POINT('',#946);
#290=VERTEX_POINT('',#951);
#291=VERTEX_POINT('',#954);
#292=VERTEX_POINT('',#959);
#293=VERTEX_POINT('',#962);
#294=VERTEX_POINT('',#967);
#295=VERTEX_POINT('',#968);
#296=VERTEX_POINT('',#970);
#297=VERTEX_POINT('',#972);
#298=VERTEX_POINT('',#976);
#299=VERTEX_POINT('',#980);
#300=VERTEX_POINT('',#987);
#301=VERTEX_POINT('',#988);
#302=VERTEX_POINT('',#990);
#303=VERTEX_POINT('',#992);
#304=VERTEX_POINT('',#996);
#305=VERTEX_POINT('',#997);
#306=VERTEX_POINT('',#999);
#307=VERTEX_POINT('',#1001);
#308=VERTEX_POINT('',#1005);
#309=VERTEX_POINT('',#1007);
#310=VERTEX_POINT('',#1011);
#311=VERTEX_POINT('',#1012);
#312=VERTEX_POINT('',#1014);
#313=VERTEX_POINT('',#1016);
#314=VERTEX_POINT('',#1020);
#315=VERTEX_POINT('',#1022);
#316=VERTEX_POINT('',#1026);
#317=VERTEX_POINT('',#1028);
#318=VERTEX_POINT('',#1032);
#319=VERTEX_POINT('',#1034);
#320=VERTEX_POINT('',#1036);
#321=VERTEX_POINT('',#1038);
#322=VERTEX_POINT('',#1042);
#323=VERTEX_POINT('',#1044);
#324=VERTEX_POINT('',#1048);
#325=VERTEX_POINT('',#1050);
#326=VERTEX_POINT('',#1054);
#327=VERTEX_POINT('',#1056);
#328=VERTEX_POINT('',#1064);
#329=VERTEX_POINT('',#1065);
#330=VERTEX_POINT('',#1067);
#331=VERTEX_POINT('',#1069);
#332=EDGE_CURVE('',#278,#279,#136,.T.);
#333=EDGE_CURVE('',#279,#280,#137,.T.);
#334=EDGE_CURVE('',#280,#281,#138,.T.);
#335=EDGE_CURVE('',#281,#278,#139,.T.);
#336=EDGE_CURVE('',#281,#282,#140,.T.);
#337=EDGE_CURVE('',#280,#282,#141,.T.);
#338=EDGE_CURVE('',#279,#283,#142,.T.);
#339=EDGE_CURVE('',#282,#283,#143,.F.);
#340=EDGE_CURVE('',#278,#283,#144,.T.);
#341=EDGE_CURVE('',#284,#284,#24,.T.);
#342=EDGE_CURVE('',#284,#285,#145,.T.);
#343=EDGE_CURVE('',#285,#285,#25,.T.);
#344=EDGE_CURVE('',#286,#286,#26,.T.);
#345=EDGE_CURVE('',#286,#287,#146,.T.);
#346=EDGE_CURVE('',#287,#287,#27,.T.);
#347=EDGE_CURVE('',#288,#288,#28,.T.);
#348=EDGE_CURVE('',#288,#289,#147,.T.);
#349=EDGE_CURVE('',#289,#289,#29,.T.);
#350=EDGE_CURVE('',#290,#290,#30,.T.);
#351=EDGE_CURVE('',#290,#291,#148,.T.);
#352=EDGE_CURVE('',#291,#291,#31,.T.);
#353=EDGE_CURVE('',#292,#292,#32,.T.);
#354=EDGE_CURVE('',#292,#293,#149,.T.);
#355=EDGE_CURVE('',#293,#293,#33,.T.);
#356=EDGE_CURVE('',#294,#295,#150,.T.);
#357=EDGE_CURVE('',#295,#296,#151,.T.);
#358=EDGE_CURVE('',#296,#297,#152,.T.);
#359=EDGE_CURVE('',#297,#294,#153,.T.);
#360=EDGE_CURVE('',#296,#298,#154,.T.);
#361=EDGE_CURVE('',#297,#298,#155,.T.);
#362=EDGE_CURVE('',#294,#299,#156,.T.);
#363=EDGE_CURVE('',#298,#299,#157,.F.);
#364=EDGE_CURVE('',#295,#299,#158,.T.);
#365=EDGE_CURVE('',#300,#301,#159,.T.);
#366=EDGE_CURVE('',#302,#300,#160,.T.);
#367=EDGE_CURVE('',#303,#302,#161,.T.);
#368=EDGE_CURVE('',#303,#301,#162,.T.);
#369=EDGE_CURVE('',#304,#305,#163,.T.);
#370=EDGE_CURVE('',#306,#304,#164,.T.);
#371=EDGE_CURVE('',#307,#306,#165,.T.);
#372=EDGE_CURVE('',#307,#305,#166,.T.);
#373=EDGE_CURVE('',#306,#308,#167,.F.);
#374=EDGE_CURVE('',#308,#309,#168,.T.);
#375=EDGE_CURVE('',#307,#309,#169,.F.);
#376=EDGE_CURVE('',#310,#311,#170,.T.);
#377=EDGE_CURVE('',#312,#310,#171,.T.);
#378=EDGE_CURVE('',#313,#312,#172,.T.);
#379=EDGE_CURVE('',#313,#311,#173,.T.);
#380=EDGE_CURVE('',#311,#314,#174,.T.);
#381=EDGE_CURVE('',#315,#313,#175,.T.);
#382=EDGE_CURVE('',#315,#314,#176,.T.);
#383=EDGE_CURVE('',#314,#316,#177,.T.);
#384=EDGE_CURVE('',#317,#315,#178,.T.);
#385=EDGE_CURVE('',#316,#317,#179,.T.);
#386=EDGE_CURVE('',#318,#310,#180,.T.);
#387=EDGE_CURVE('',#319,#318,#181,.T.);
#388=EDGE_CURVE('',#320,#319,#182,.T.);
#389=EDGE_CURVE('',#321,#320,#183,.T.);
#390=EDGE_CURVE('',#316,#321,#184,.T.);
#391=EDGE_CURVE('',#309,#317,#185,.T.);
#392=EDGE_CURVE('',#322,#308,#186,.T.);
#393=EDGE_CURVE('',#323,#322,#187,.T.);
#394=EDGE_CURVE('',#312,#323,#188,.T.);
#395=EDGE_CURVE('',#324,#321,#189,.T.);
#396=EDGE_CURVE('',#324,#325,#190,.T.);
#397=EDGE_CURVE('',#325,#318,#191,.T.);
#398=EDGE_CURVE('',#325,#326,#192,.T.);
#399=EDGE_CURVE('',#327,#324,#193,.T.);
#400=EDGE_CURVE('',#326,#327,#194,.T.);
#401=EDGE_CURVE('',#326,#319,#195,.T.);
#402=EDGE_CURVE('',#327,#320,#196,.T.);
#403=EDGE_CURVE('',#328,#329,#197,.F.);
#404=EDGE_CURVE('',#329,#330,#198,.F.);
#405=EDGE_CURVE('',#330,#331,#199,.F.);
#406=EDGE_CURVE('',#331,#328,#200,.F.);
#407=EDGE_CURVE('',#329,#322,#201,.F.);
#408=EDGE_CURVE('',#328,#323,#202,.T.);
#409=EDGE_CURVE('',#331,#302,#203,.F.);
#410=EDGE_CURVE('',#305,#300,#204,.T.);
#411=EDGE_CURVE('',#301,#304,#205,.T.);
#412=EDGE_CURVE('',#330,#303,#206,.F.);
#413=ORIENTED_EDGE('',*,*,#332,.T.);
#414=ORIENTED_EDGE('',*,*,#333,.T.);
#415=ORIENTED_EDGE('',*,*,#334,.T.);
#416=ORIENTED_EDGE('',*,*,#335,.T.);
#417=ORIENTED_EDGE('',*,*,#336,.F.);
#418=ORIENTED_EDGE('',*,*,#334,.F.);
#419=ORIENTED_EDGE('',*,*,#337,.T.);
#420=ORIENTED_EDGE('',*,*,#338,.T.);
#421=ORIENTED_EDGE('',*,*,#339,.F.);
#422=ORIENTED_EDGE('',*,*,#337,.F.);
#423=ORIENTED_EDGE('',*,*,#333,.F.);
#424=ORIENTED_EDGE('',*,*,#338,.F.);
#425=ORIENTED_EDGE('',*,*,#332,.F.);
#426=ORIENTED_EDGE('',*,*,#340,.T.);
#427=ORIENTED_EDGE('',*,*,#336,.T.);
#428=ORIENTED_EDGE('',*,*,#339,.T.);
#429=ORIENTED_EDGE('',*,*,#340,.F.);
#430=ORIENTED_EDGE('',*,*,#335,.F.);
#431=ORIENTED_EDGE('',*,*,#341,.T.);
#432=ORIENTED_EDGE('',*,*,#342,.T.);
#433=ORIENTED_EDGE('',*,*,#343,.F.);
#434=ORIENTED_EDGE('',*,*,#342,.F.);
#435=ORIENTED_EDGE('',*,*,#344,.F.);
#436=ORIENTED_EDGE('',*,*,#345,.T.);
#437=ORIENTED_EDGE('',*,*,#346,.T.);
#438=ORIENTED_EDGE('',*,*,#345,.F.);
#439=ORIENTED_EDGE('',*,*,#344,.T.);
#440=ORIENTED_EDGE('',*,*,#343,.T.);
#441=ORIENTED_EDGE('',*,*,#346,.F.);
#442=ORIENTED_EDGE('',*,*,#341,.F.);
#443=ORIENTED_EDGE('',*,*,#347,.F.);
#444=ORIENTED_EDGE('',*,*,#347,.T.);
#445=ORIENTED_EDGE('',*,*,#348,.T.);
#446=ORIENTED_EDGE('',*,*,#349,.T.);
#447=ORIENTED_EDGE('',*,*,#348,.F.);
#448=ORIENTED_EDGE('',*,*,#349,.F.);
#449=ORIENTED_EDGE('',*,*,#350,.F.);
#450=ORIENTED_EDGE('',*,*,#350,.T.);
#451=ORIENTED_EDGE('',*,*,#351,.T.);
#452=ORIENTED_EDGE('',*,*,#352,.T.);
#453=ORIENTED_EDGE('',*,*,#351,.F.);
#454=ORIENTED_EDGE('',*,*,#352,.F.);
#455=ORIENTED_EDGE('',*,*,#353,.F.);
#456=ORIENTED_EDGE('',*,*,#353,.T.);
#457=ORIENTED_EDGE('',*,*,#354,.T.);
#458=ORIENTED_EDGE('',*,*,#355,.T.);
#459=ORIENTED_EDGE('',*,*,#354,.F.);
#460=ORIENTED_EDGE('',*,*,#355,.F.);
#461=ORIENTED_EDGE('',*,*,#356,.T.);
#462=ORIENTED_EDGE('',*,*,#357,.T.);
#463=ORIENTED_EDGE('',*,*,#358,.T.);
#464=ORIENTED_EDGE('',*,*,#359,.T.);
#465=ORIENTED_EDGE('',*,*,#360,.T.);
#466=ORIENTED_EDGE('',*,*,#361,.F.);
#467=ORIENTED_EDGE('',*,*,#358,.F.);
#468=ORIENTED_EDGE('',*,*,#362,.F.);
#469=ORIENTED_EDGE('',*,*,#359,.F.);
#470=ORIENTED_EDGE('',*,*,#361,.T.);
#471=ORIENTED_EDGE('',*,*,#363,.T.);
#472=ORIENTED_EDGE('',*,*,#362,.T.);
#473=ORIENTED_EDGE('',*,*,#364,.F.);
#474=ORIENTED_EDGE('',*,*,#356,.F.);
#475=ORIENTED_EDGE('',*,*,#360,.F.);
#476=ORIENTED_EDGE('',*,*,#357,.F.);
#477=ORIENTED_EDGE('',*,*,#364,.T.);
#478=ORIENTED_EDGE('',*,*,#363,.F.);
#479=ORIENTED_EDGE('',*,*,#365,.F.);
#480=ORIENTED_EDGE('',*,*,#366,.F.);
#481=ORIENTED_EDGE('',*,*,#367,.F.);
#482=ORIENTED_EDGE('',*,*,#368,.T.);
#483=ORIENTED_EDGE('',*,*,#369,.F.);
#484=ORIENTED_EDGE('',*,*,#370,.F.);
#485=ORIENTED_EDGE('',*,*,#371,.F.);
#486=ORIENTED_EDGE('',*,*,#372,.T.);
#487=ORIENTED_EDGE('',*,*,#371,.T.);
#488=ORIENTED_EDGE('',*,*,#373,.T.);
#489=ORIENTED_EDGE('',*,*,#374,.T.);
#490=ORIENTED_EDGE('',*,*,#375,.F.);
#491=ORIENTED_EDGE('',*,*,#376,.F.);
#492=ORIENTED_EDGE('',*,*,#377,.F.);
#493=ORIENTED_EDGE('',*,*,#378,.F.);
#494=ORIENTED_EDGE('',*,*,#379,.T.);
#495=ORIENTED_EDGE('',*,*,#380,.F.);
#496=ORIENTED_EDGE('',*,*,#379,.F.);
#497=ORIENTED_EDGE('',*,*,#381,.F.);
#498=ORIENTED_EDGE('',*,*,#382,.T.);
#499=ORIENTED_EDGE('',*,*,#383,.F.);
#500=ORIENTED_EDGE('',*,*,#382,.F.);
#501=ORIENTED_EDGE('',*,*,#384,.F.);
#502=ORIENTED_EDGE('',*,*,#385,.F.);
#503=ORIENTED_EDGE('',*,*,#377,.T.);
#504=ORIENTED_EDGE('',*,*,#386,.F.);
#505=ORIENTED_EDGE('',*,*,#387,.F.);
#506=ORIENTED_EDGE('',*,*,#388,.F.);
#507=ORIENTED_EDGE('',*,*,#389,.F.);
#508=ORIENTED_EDGE('',*,*,#390,.F.);
#509=ORIENTED_EDGE('',*,*,#385,.T.);
#510=ORIENTED_EDGE('',*,*,#391,.F.);
#511=ORIENTED_EDGE('',*,*,#374,.F.);
#512=ORIENTED_EDGE('',*,*,#392,.F.);
#513=ORIENTED_EDGE('',*,*,#393,.F.);
#514=ORIENTED_EDGE('',*,*,#394,.F.);
#515=ORIENTED_EDGE('',*,*,#376,.T.);
#516=ORIENTED_EDGE('',*,*,#380,.T.);
#517=ORIENTED_EDGE('',*,*,#383,.T.);
#518=ORIENTED_EDGE('',*,*,#390,.T.);
#519=ORIENTED_EDGE('',*,*,#395,.F.);
#520=ORIENTED_EDGE('',*,*,#396,.T.);
#521=ORIENTED_EDGE('',*,*,#397,.T.);
#522=ORIENTED_EDGE('',*,*,#386,.T.);
#523=ORIENTED_EDGE('',*,*,#398,.F.);
#524=ORIENTED_EDGE('',*,*,#396,.F.);
#525=ORIENTED_EDGE('',*,*,#399,.F.);
#526=ORIENTED_EDGE('',*,*,#400,.F.);
#527=ORIENTED_EDGE('',*,*,#387,.T.);
#528=ORIENTED_EDGE('',*,*,#397,.F.);
#529=ORIENTED_EDGE('',*,*,#398,.T.);
#530=ORIENTED_EDGE('',*,*,#401,.T.);
#531=ORIENTED_EDGE('',*,*,#388,.T.);
#532=ORIENTED_EDGE('',*,*,#401,.F.);
#533=ORIENTED_EDGE('',*,*,#400,.T.);
#534=ORIENTED_EDGE('',*,*,#402,.T.);
#535=ORIENTED_EDGE('',*,*,#403,.T.);
#536=ORIENTED_EDGE('',*,*,#404,.T.);
#537=ORIENTED_EDGE('',*,*,#405,.T.);
#538=ORIENTED_EDGE('',*,*,#406,.T.);
#539=ORIENTED_EDGE('',*,*,#393,.T.);
#540=ORIENTED_EDGE('',*,*,#407,.F.);
#541=ORIENTED_EDGE('',*,*,#403,.F.);
#542=ORIENTED_EDGE('',*,*,#408,.T.);
#543=ORIENTED_EDGE('',*,*,#378,.T.);
#544=ORIENTED_EDGE('',*,*,#394,.T.);
#545=ORIENTED_EDGE('',*,*,#408,.F.);
#546=ORIENTED_EDGE('',*,*,#406,.F.);
#547=ORIENTED_EDGE('',*,*,#409,.T.);
#548=ORIENTED_EDGE('',*,*,#366,.T.);
#549=ORIENTED_EDGE('',*,*,#410,.F.);
#550=ORIENTED_EDGE('',*,*,#372,.F.);
#551=ORIENTED_EDGE('',*,*,#375,.T.);
#552=ORIENTED_EDGE('',*,*,#391,.T.);
#553=ORIENTED_EDGE('',*,*,#384,.T.);
#554=ORIENTED_EDGE('',*,*,#381,.T.);
#555=ORIENTED_EDGE('',*,*,#389,.T.);
#556=ORIENTED_EDGE('',*,*,#402,.F.);
#557=ORIENTED_EDGE('',*,*,#399,.T.);
#558=ORIENTED_EDGE('',*,*,#395,.T.);
#559=ORIENTED_EDGE('',*,*,#411,.T.);
#560=ORIENTED_EDGE('',*,*,#369,.T.);
#561=ORIENTED_EDGE('',*,*,#410,.T.);
#562=ORIENTED_EDGE('',*,*,#365,.T.);
#563=ORIENTED_EDGE('',*,*,#367,.T.);
#564=ORIENTED_EDGE('',*,*,#409,.F.);
#565=ORIENTED_EDGE('',*,*,#405,.F.);
#566=ORIENTED_EDGE('',*,*,#412,.T.);
#567=ORIENTED_EDGE('',*,*,#392,.T.);
#568=ORIENTED_EDGE('',*,*,#373,.F.);
#569=ORIENTED_EDGE('',*,*,#370,.T.);
#570=ORIENTED_EDGE('',*,*,#411,.F.);
#571=ORIENTED_EDGE('',*,*,#368,.F.);
#572=ORIENTED_EDGE('',*,*,#412,.F.);
#573=ORIENTED_EDGE('',*,*,#404,.F.);
#574=ORIENTED_EDGE('',*,*,#407,.T.);
#575=PLANE('',#672);
#576=PLANE('',#673);
#577=PLANE('',#674);
#578=PLANE('',#675);
#579=PLANE('',#676);
#580=PLANE('',#683);
#581=PLANE('',#684);
#582=PLANE('',#685);
#583=PLANE('',#689);
#584=PLANE('',#690);
#585=PLANE('',#694);
#586=PLANE('',#695);
#587=PLANE('',#699);
#588=PLANE('',#700);
#589=PLANE('',#701);
#590=PLANE('',#702);
#591=PLANE('',#703);
#592=PLANE('',#704);
#593=PLANE('',#705);
#594=PLANE('',#706);
#595=PLANE('',#707);
#596=PLANE('',#708);
#597=PLANE('',#709);
#598=PLANE('',#710);
#599=PLANE('',#711);
#600=PLANE('',#712);
#601=PLANE('',#713);
#602=PLANE('',#714);
#603=PLANE('',#715);
#604=PLANE('',#716);
#605=PLANE('',#717);
#606=PLANE('',#718);
#607=PLANE('',#719);
#608=PLANE('',#720);
#609=PLANE('',#721);
#610=ADVANCED_FACE('',(#53),#575,.F.);
#611=ADVANCED_FACE('',(#54),#576,.F.);
#612=ADVANCED_FACE('',(#55),#577,.F.);
#613=ADVANCED_FACE('',(#56),#578,.F.);
#614=ADVANCED_FACE('',(#57),#579,.F.);
#615=ADVANCED_FACE('',(#58),#34,.F.);
#616=ADVANCED_FACE('',(#59),#35,.T.);
#617=ADVANCED_FACE('',(#60,#21),#580,.T.);
#618=ADVANCED_FACE('',(#61,#22),#581,.F.);
#619=ADVANCED_FACE('',(#62),#582,.T.);
#620=ADVANCED_FACE('',(#63),#36,.T.);
#621=ADVANCED_FACE('',(#64),#583,.F.);
#622=ADVANCED_FACE('',(#65),#584,.T.);
#623=ADVANCED_FACE('',(#66),#37,.T.);
#624=ADVANCED_FACE('',(#67),#585,.F.);
#625=ADVANCED_FACE('',(#68),#586,.T.);
#626=ADVANCED_FACE('',(#69),#38,.T.);
#627=ADVANCED_FACE('',(#70),#587,.F.);
#628=ADVANCED_FACE('',(#71),#588,.F.);
#629=ADVANCED_FACE('',(#72),#589,.T.);
#630=ADVANCED_FACE('',(#73),#590,.T.);
#631=ADVANCED_FACE('',(#74),#591,.T.);
#632=ADVANCED_FACE('',(#75),#592,.T.);
#633=ADVANCED_FACE('',(#76),#593,.F.);
#634=ADVANCED_FACE('',(#77),#594,.F.);
#635=ADVANCED_FACE('',(#78),#595,.F.);
#636=ADVANCED_FACE('',(#79),#596,.F.);
#637=ADVANCED_FACE('',(#80),#597,.F.);
#638=ADVANCED_FACE('',(#81),#598,.F.);
#639=ADVANCED_FACE('',(#82),#599,.F.);
#640=ADVANCED_FACE('',(#83),#600,.T.);
#641=ADVANCED_FACE('',(#84),#601,.F.);
#642=ADVANCED_FACE('',(#85),#602,.T.);
#643=ADVANCED_FACE('',(#86),#603,.T.);
#644=ADVANCED_FACE('',(#87),#604,.T.);
#645=ADVANCED_FACE('',(#88),#605,.F.);
#646=ADVANCED_FACE('',(#89),#606,.F.);
#647=ADVANCED_FACE('',(#90,#23),#607,.T.);
#648=ADVANCED_FACE('',(#91),#608,.F.);
#649=ADVANCED_FACE('',(#92),#609,.F.);
#650=CLOSED_SHELL('',(#610,#611,#612,#613,#614));
#651=CLOSED_SHELL('',(#615,#616,#617,#618));
#652=CLOSED_SHELL('',(#619,#620,#621));
#653=CLOSED_SHELL('',(#622,#623,#624));
#654=CLOSED_SHELL('',(#625,#626,#627));
#655=CLOSED_SHELL('',(#628,#629,#630,#631,#632));
#656=CLOSED_SHELL('',(#633,#634,#635,#636,#637,#638,#639,#640,#641,#642,
#643,#644,#645,#646,#647,#648,#649));
#657=DERIVED_UNIT_ELEMENT(#659,1.);
#658=DERIVED_UNIT_ELEMENT(#1094,-3.);
#659=(
MASS_UNIT()
NAMED_UNIT(*)
SI_UNIT(.KILO.,.GRAM.)
);
#660=DERIVED_UNIT((#657,#658));
#661=MEASURE_REPRESENTATION_ITEM('density measure',
POSITIVE_RATIO_MEASURE(7850.),#660);
#662=PROPERTY_DEFINITION_REPRESENTATION(#667,#664);
#663=PROPERTY_DEFINITION_REPRESENTATION(#668,#665);
#664=REPRESENTATION('material name',(#666),#1091);
#665=REPRESENTATION('density',(#661),#1091);
#666=DESCRIPTIVE_REPRESENTATION_ITEM('Steel','Steel');
#667=PROPERTY_DEFINITION('material property','material name',#1111);
#668=PROPERTY_DEFINITION('material property','density of part',#1111);
#669=AXIS2_PLACEMENT_3D('',#905,#724,#725);
#670=AXIS2_PLACEMENT_3D('',#906,#726,#727);
#671=AXIS2_PLACEMENT_3D('',#907,#728,#729);
#672=AXIS2_PLACEMENT_3D('',#908,#730,#731);
#673=AXIS2_PLACEMENT_3D('',#917,#736,#737);
#674=AXIS2_PLACEMENT_3D('',#921,#740,#741);
#675=AXIS2_PLACEMENT_3D('',#925,#744,#745);
#676=AXIS2_PLACEMENT_3D('',#927,#747,#748);
#677=AXIS2_PLACEMENT_3D('',#928,#749,#750);
#678=AXIS2_PLACEMENT_3D('',#930,#751,#752);
#679=AXIS2_PLACEMENT_3D('',#933,#754,#755);
#680=AXIS2_PLACEMENT_3D('',#934,#756,#757);
#681=AXIS2_PLACEMENT_3D('',#936,#758,#759);
#682=AXIS2_PLACEMENT_3D('',#939,#761,#762);
#683=AXIS2_PLACEMENT_3D('',#940,#763,#764);
#684=AXIS2_PLACEMENT_3D('',#941,#765,#766);
#685=AXIS2_PLACEMENT_3D('',#942,#767,#768);
#686=AXIS2_PLACEMENT_3D('',#944,#769,#770);
#687=AXIS2_PLACEMENT_3D('',#945,#771,#772);
#688=AXIS2_PLACEMENT_3D('',#948,#774,#775);
#689=AXIS2_PLACEMENT_3D('',#949,#776,#777);
#690=AXIS2_PLACEMENT_3D('',#950,#778,#779);
#691=AXIS2_PLACEMENT_3D('',#952,#780,#781);
#692=AXIS2_PLACEMENT_3D('',#953,#782,#783);
#693=AXIS2_PLACEMENT_3D('',#956,#785,#786);
#694=AXIS2_PLACEMENT_3D('',#957,#787,#788);
#695=AXIS2_PLACEMENT_3D('',#958,#789,#790);
#696=AXIS2_PLACEMENT_3D('',#960,#791,#792);
#697=AXIS2_PLACEMENT_3D('',#961,#793,#794);
#698=AXIS2_PLACEMENT_3D('',#964,#796,#797);
#699=AXIS2_PLACEMENT_3D('',#965,#798,#799);
#700=AXIS2_PLACEMENT_3D('',#966,#800,#801);
#701=AXIS2_PLACEMENT_3D('',#975,#806,#807);
#702=AXIS2_PLACEMENT_3D('',#979,#810,#811);
#703=AXIS2_PLACEMENT_3D('',#983,#814,#815);
#704=AXIS2_PLACEMENT_3D('',#985,#817,#818);
#705=AXIS2_PLACEMENT_3D('',#986,#819,#820);
#706=AXIS2_PLACEMENT_3D('',#995,#825,#826);
#707=AXIS2_PLACEMENT_3D('',#1004,#831,#832);
#708=AXIS2_PLACEMENT_3D('',#1010,#836,#837);
#709=AXIS2_PLACEMENT_3D('',#1019,#842,#843);
#710=AXIS2_PLACEMENT_3D('',#1025,#847,#848);
#711=AXIS2_PLACEMENT_3D('',#1031,#852,#853);
#712=AXIS2_PLACEMENT_3D('',#1047,#863,#864);
#713=AXIS2_PLACEMENT_3D('',#1053,#868,#869);
#714=AXIS2_PLACEMENT_3D('',#1059,#873,#874);
#715=AXIS2_PLACEMENT_3D('',#1061,#876,#877);
#716=AXIS2_PLACEMENT_3D('',#1063,#879,#880);
#717=AXIS2_PLACEMENT_3D('',#1072,#885,#886);
#718=AXIS2_PLACEMENT_3D('',#1075,#889,#890);
#719=AXIS2_PLACEMENT_3D('',#1078,#893,#894);
#720=AXIS2_PLACEMENT_3D('',#1080,#896,#897);
#721=AXIS2_PLACEMENT_3D('',#1082,#899,#900);
#722=AXIS2_PLACEMENT_3D('',#1083,#901,#902);
#723=AXIS2_PLACEMENT_3D('',#1084,#903,#904);
#724=DIRECTION('axis',(0.,0.,1.));
#725=DIRECTION('refdir',(1.,0.,0.));
#726=DIRECTION('axis',(0.,0.,1.));
#727=DIRECTION('refdir',(1.,0.,0.));
#728=DIRECTION('axis',(0.,0.,1.));
#729=DIRECTION('refdir',(1.,0.,0.));
#730=DIRECTION('center_axis',(-1.,0.,0.));
#731=DIRECTION('ref_axis',(0.,0.,-1.));
#732=DIRECTION('',(0.,-1.,-7.40148683083437E-16));
#733=DIRECTION('',(0.,3.35161667811368E-16,-1.));
#734=DIRECTION('',(0.,1.,0.));
#735=DIRECTION('',(0.,0.,1.));
#736=DIRECTION('center_axis',(0.707106781186547,0.,0.707106781186548));
#737=DIRECTION('ref_axis',(0.,1.,0.));
#738=DIRECTION('',(-0.577350269189626,-0.577350269189626,0.577350269189626));
#739=DIRECTION('',(-0.577350269189625,0.577350269189627,0.577350269189625));
#740=DIRECTION('center_axis',(0.707106781186549,0.707106781186546,2.36995088103211E-16));
#741=DIRECTION('ref_axis',(1.4791141972894E-31,3.35161667811368E-16,-1.));
#742=DIRECTION('',(-0.577350269189625,0.577350269189628,-0.577350269189624));
#743=DIRECTION('',(1.67580833905684E-16,1.67580833905684E-16,-1.));
#744=DIRECTION('center_axis',(0.707106781186547,5.23364152894591E-16,-0.707106781186548));
#745=DIRECTION('ref_axis',(-3.45126646034193E-31,-1.,-7.40148683083437E-16));
#746=DIRECTION('',(-0.577350269189626,-0.577350269189626,-0.577350269189626));
#747=DIRECTION('center_axis',(0.707106781186548,-0.707106781186547,-6.35333322582409E-33));
#748=DIRECTION('ref_axis',(8.98497001423603E-33,1.3684555315672E-48,1.));
#749=DIRECTION('center_axis',(0.,1.,0.));
#750=DIRECTION('ref_axis',(1.,0.,0.));
#751=DIRECTION('center_axis',(0.,-1.,0.));
#752=DIRECTION('ref_axis',(1.,0.,0.));
#753=DIRECTION('',(0.,1.,0.));
#754=DIRECTION('center_axis',(0.,-1.,0.));
#755=DIRECTION('ref_axis',(1.,0.,0.));
#756=DIRECTION('center_axis',(0.,1.,0.));
#757=DIRECTION('ref_axis',(1.,0.,0.));
#758=DIRECTION('center_axis',(0.,1.,0.));
#759=DIRECTION('ref_axis',(1.,0.,0.));
#760=DIRECTION('',(0.,-1.,0.));
#761=DIRECTION('center_axis',(0.,1.,0.));
#762=DIRECTION('ref_axis',(1.,0.,0.));
#763=DIRECTION('center_axis',(0.,1.,0.));
#764=DIRECTION('ref_axis',(1.,0.,0.));
#765=DIRECTION('center_axis',(0.,1.,0.));
#766=DIRECTION('ref_axis',(1.,0.,0.));
#767=DIRECTION('center_axis',(0.,1.,0.));
#768=DIRECTION('ref_axis',(1.,0.,0.));
#769=DIRECTION('center_axis',(0.,-1.,0.));
#770=DIRECTION('ref_axis',(1.,0.,0.));
#771=DIRECTION('center_axis',(0.,1.,0.));
#772=DIRECTION('ref_axis',(1.,0.,0.));
#773=DIRECTION('',(0.,-1.,0.));
#774=DIRECTION('center_axis',(0.,1.,0.));
#775=DIRECTION('ref_axis',(1.,0.,0.));
#776=DIRECTION('center_axis',(0.,1.,0.));
#777=DIRECTION('ref_axis',(1.,0.,0.));
#778=DIRECTION('center_axis',(0.,1.,0.));
#779=DIRECTION('ref_axis',(1.,0.,0.));
#780=DIRECTION('center_axis',(0.,-1.,0.));
#781=DIRECTION('ref_axis',(1.,0.,0.));
#782=DIRECTION('center_axis',(0.,1.,0.));
#783=DIRECTION('ref_axis',(1.,0.,0.));
#784=DIRECTION('',(0.,-1.,0.));
#785=DIRECTION('center_axis',(0.,1.,0.));
#786=DIRECTION('ref_axis',(1.,0.,0.));
#787=DIRECTION('center_axis',(0.,1.,0.));
#788=DIRECTION('ref_axis',(1.,0.,0.));
#789=DIRECTION('center_axis',(0.,1.,0.));
#790=DIRECTION('ref_axis',(1.,0.,0.));
#791=DIRECTION('center_axis',(0.,-1.,0.));
#792=DIRECTION('ref_axis',(1.,0.,0.));
#793=DIRECTION('center_axis',(0.,1.,0.));
#794=DIRECTION('ref_axis',(1.,0.,0.));
#795=DIRECTION('',(0.,-1.,0.));
#796=DIRECTION('center_axis',(0.,1.,0.));
#797=DIRECTION('ref_axis',(1.,0.,0.));
#798=DIRECTION('center_axis',(0.,1.,0.));
#799=DIRECTION('ref_axis',(1.,0.,0.));
#800=DIRECTION('center_axis',(1.,0.,-2.02729467830235E-33));
#801=DIRECTION('ref_axis',(2.02729467830235E-33,0.,1.));
#802=DIRECTION('',(1.50049948636755E-48,1.,7.40148683083437E-16));
#803=DIRECTION('',(-2.02729467830235E-33,0.,-1.));
#804=DIRECTION('',(0.,-1.,0.));
#805=DIRECTION('',(2.02729467830235E-33,-3.35161667811368E-16,1.));
#806=DIRECTION('center_axis',(0.707106781186547,0.,-0.707106781186548));
#807=DIRECTION('ref_axis',(0.,1.,0.));
#808=DIRECTION('',(0.577350269189626,-0.577350269189626,0.577350269189626));
#809=DIRECTION('',(0.577350269189625,0.577350269189627,0.577350269189625));
#810=DIRECTION('center_axis',(0.707106781186549,-0.707106781186546,-2.36995088103211E-16));
#811=DIRECTION('ref_axis',(-1.4791141972894E-31,3.35161667811368E-16,-1.));
#812=DIRECTION('',(0.577350269189625,0.577350269189628,-0.577350269189624));
#813=DIRECTION('',(-1.67580833905684E-16,1.67580833905684E-16,-1.));
#814=DIRECTION('center_axis',(0.707106781186547,-5.23364152894591E-16,0.707106781186548));
#815=DIRECTION('ref_axis',(3.45126646034193E-31,-1.,-7.40148683083437E-16));
#816=DIRECTION('',(0.577350269189626,-0.577350269189626,-0.577350269189626));
#817=DIRECTION('center_axis',(0.707106781186548,0.707106781186547,3.4863055968421E-33));
#818=DIRECTION('ref_axis',(-4.93038065763132E-33,-1.3684555315672E-48,1.));
#819=DIRECTION('center_axis',(0.,-1.,0.));
#820=DIRECTION('ref_axis',(0.,0.,-1.));
#821=DIRECTION('',(0.,0.,1.));
#822=DIRECTION('',(1.,0.,0.));
#823=DIRECTION('',(0.,0.,-1.));
#824=DIRECTION('',(1.,0.,0.));
#825=DIRECTION('center_axis',(0.,1.,0.));
#826=DIRECTION('ref_axis',(0.,0.,1.));
#827=DIRECTION('',(0.,0.,-1.));
#828=DIRECTION('',(1.,0.,0.));
#829=DIRECTION('',(0.,0.,1.));
#830=DIRECTION('',(1.,0.,0.));
#831=DIRECTION('center_axis',(1.,0.,0.));
#832=DIRECTION('ref_axis',(0.,0.,-1.));
#833=DIRECTION('',(0.,-1.,0.));
#834=DIRECTION('',(0.,0.,-1.));
#835=DIRECTION('',(0.,-1.,0.));
#836=DIRECTION('center_axis',(-1.,-1.90576591148175E-43,0.));
#837=DIRECTION('ref_axis',(-1.90576591148175E-43,1.,0.));
#838=DIRECTION('',(1.90576591148175E-43,-1.,0.));
#839=DIRECTION('',(0.,0.,-1.));
#840=DIRECTION('',(-1.90576591148175E-43,1.,0.));
#841=DIRECTION('',(0.,0.,-1.));
#842=DIRECTION('center_axis',(1.90576591148175E-43,-1.,0.));
#843=DIRECTION('ref_axis',(-1.,-1.90576591148175E-43,0.));
#844=DIRECTION('',(1.,1.90576591148175E-43,0.));
#845=DIRECTION('',(-1.,-1.90576591148175E-43,0.));
#846=DIRECTION('',(0.,0.,-1.));
#847=DIRECTION('center_axis',(1.,1.90576591148175E-43,0.));
#848=DIRECTION('ref_axis',(1.90576591148175E-43,-1.,0.));
#849=DIRECTION('',(-1.90576591148175E-43,1.,0.));
#850=DIRECTION('',(1.90576591148175E-43,-1.,0.));
#851=DIRECTION('',(0.,0.,1.));
#852=DIRECTION('center_axis',(0.,-1.,0.));
#853=DIRECTION('ref_axis',(0.,0.,-1.));
#854=DIRECTION('',(1.,0.,0.));
#855=DIRECTION('',(-2.02729467830235E-33,0.,-1.));
#856=DIRECTION('',(-1.,0.,-1.79753461476142E-32));
#857=DIRECTION('',(0.,0.,1.));
#858=DIRECTION('',(1.,0.,0.));
#859=DIRECTION('',(-1.,0.,0.));
#860=DIRECTION('',(1.,0.,1.79753461476142E-32));
#861=DIRECTION('',(2.02729467830235E-33,0.,1.));
#862=DIRECTION('',(-1.,0.,0.));
#863=DIRECTION('center_axis',(0.,0.,-1.));
#864=DIRECTION('ref_axis',(-1.,0.,0.));
#865=DIRECTION('',(0.,1.,0.));
#866=DIRECTION('',(-1.,0.,0.));
#867=DIRECTION('',(0.,1.,0.));
#868=DIRECTION('center_axis',(0.,1.,0.));
#869=DIRECTION('ref_axis',(1.,0.,0.));
#870=DIRECTION('',(2.02729467830235E-33,0.,1.));
#871=DIRECTION('',(0.,0.,-1.));
#872=DIRECTION('',(1.,0.,1.79753461476142E-32));
#873=DIRECTION('center_axis',(-1.,0.,2.02729467830235E-33));
#874=DIRECTION('ref_axis',(2.02729467830235E-33,0.,1.));
#875=DIRECTION('',(0.,1.,0.));
#876=DIRECTION('center_axis',(-1.79753461476142E-32,0.,1.));
#877=DIRECTION('ref_axis',(1.,0.,1.79753461476142E-32));
#878=DIRECTION('',(0.,1.,0.));
#879=DIRECTION('center_axis',(0.,1.,0.));
#880=DIRECTION('ref_axis',(1.,0.,0.));
#881=DIRECTION('',(-2.02729467830235E-33,0.,-1.));
#882=DIRECTION('',(-1.,0.,-1.79753461476142E-32));
#883=DIRECTION('',(0.,0.,1.));
#884=DIRECTION('',(1.,0.,0.));
#885=DIRECTION('center_axis',(-1.,0.,2.02729467830235E-33));
#886=DIRECTION('ref_axis',(2.02729467830235E-33,0.,1.));
#887=DIRECTION('',(0.,-1.,0.));
#888=DIRECTION('',(0.,1.,0.));
#889=DIRECTION('center_axis',(0.,0.,-1.));
#890=DIRECTION('ref_axis',(-1.,0.,0.));
#891=DIRECTION('',(0.,-1.,0.));
#892=DIRECTION('',(0.,-1.,0.));
#893=DIRECTION('center_axis',(1.,0.,0.));
#894=DIRECTION('ref_axis',(0.,0.,-1.));
#895=DIRECTION('',(0.,1.,2.69722759936404E-16));
#896=DIRECTION('center_axis',(1.,0.,0.));
#897=DIRECTION('ref_axis',(0.,0.,-1.));
#898=DIRECTION('',(0.,-1.,0.));
#899=DIRECTION('center_axis',(-1.79753461476142E-32,0.,1.));
#900=DIRECTION('ref_axis',(1.,0.,1.79753461476142E-32));
#901=DIRECTION('',(0.,0.,1.));
#902=DIRECTION('',(1.,0.,0.));
#903=DIRECTION('',(0.,0.,1.));
#904=DIRECTION('',(1.,0.,0.));
#905=CARTESIAN_POINT('',(0.,0.,0.));
#906=CARTESIAN_POINT('',(0.,0.,0.));
#907=CARTESIAN_POINT('',(0.,0.,0.));
#908=CARTESIAN_POINT('Origin',(40.5,10.0082140682163,-1.80286436225825));
#909=CARTESIAN_POINT('',(40.5,10.0082140682163,-5.05286436225826));
#910=CARTESIAN_POINT('',(40.5,7.00821406821628,-5.05286436225827));
#911=CARTESIAN_POINT('',(40.5,-3.99178593178372,-5.05286436225827));
#912=CARTESIAN_POINT('',(40.5,7.00821406821629,-31.5528643622583));
#913=CARTESIAN_POINT('',(40.5,7.00821406821628,-15.9278643622583));
#914=CARTESIAN_POINT('',(40.5,10.0082140682163,-31.5528643622583));
#915=CARTESIAN_POINT('',(40.5,-2.49178593178371,-31.5528643622583));
#916=CARTESIAN_POINT('',(40.5,10.0082140682163,-9.80286436225825));
#917=CARTESIAN_POINT('Origin',(40.5,10.0082140682163,-31.5528643622583));
#918=CARTESIAN_POINT('',(39.,8.50821406821629,-30.0528643622583));
#919=CARTESIAN_POINT('',(36.0833333333333,5.59154740154962,-27.1361976955916));
#920=CARTESIAN_POINT('',(40.,7.50821406821629,-31.0528643622583));
#921=CARTESIAN_POINT('Origin',(40.5,7.00821406821629,-31.5528643622583));
#922=CARTESIAN_POINT('',(39.,8.50821406821628,-6.55286436225826));
#923=CARTESIAN_POINT('',(36.0833333333333,11.424880734883,-9.46953102892491));
#924=CARTESIAN_POINT('',(39.,8.50821406821629,-18.3028643622583));
#925=CARTESIAN_POINT('Origin',(40.5,7.00821406821628,-5.05286436225827));
#926=CARTESIAN_POINT('',(40.,9.50821406821628,-5.55286436225827));
#927=CARTESIAN_POINT('Origin',(40.5,10.0082140682163,-5.05286436225826));
#928=CARTESIAN_POINT('Origin',(4.831,0.,-4.75));
#929=CARTESIAN_POINT('',(4.431,0.,-4.75));
#930=CARTESIAN_POINT('Origin',(4.831,0.,-4.75));
#931=CARTESIAN_POINT('',(4.431,4.,-4.75));
#932=CARTESIAN_POINT('',(4.431,0.,-4.75));
#933=CARTESIAN_POINT('Origin',(4.831,4.,-4.75));
#934=CARTESIAN_POINT('Origin',(4.831,0.,-4.75));
#935=CARTESIAN_POINT('',(3.581,4.,-4.75));
#936=CARTESIAN_POINT('Origin',(4.831,4.,-4.75));
#937=CARTESIAN_POINT('',(3.581,0.,-4.75));
#938=CARTESIAN_POINT('',(3.581,0.,-4.75));
#939=CARTESIAN_POINT('Origin',(4.831,0.,-4.75));
#940=CARTESIAN_POINT('Origin',(4.831,4.,-4.75));
#941=CARTESIAN_POINT('Origin',(4.831,0.,-4.75));
#942=CARTESIAN_POINT('Origin',(5.,3.5,-33.));
#943=CARTESIAN_POINT('',(3.75,3.5,-33.));
#944=CARTESIAN_POINT('Origin',(5.,3.5,-33.));
#945=CARTESIAN_POINT('Origin',(5.,0.,-33.));
#946=CARTESIAN_POINT('',(3.75,0.,-33.));
#947=CARTESIAN_POINT('',(3.75,0.,-33.));
#948=CARTESIAN_POINT('Origin',(5.,0.,-33.));
#949=CARTESIAN_POINT('Origin',(5.,0.,-33.));
#950=CARTESIAN_POINT('Origin',(37.,3.5,-33.));
#951=CARTESIAN_POINT('',(35.75,3.5,-33.));
#952=CARTESIAN_POINT('Origin',(37.,3.5,-33.));
#953=CARTESIAN_POINT('Origin',(37.,0.,-33.));
#954=CARTESIAN_POINT('',(35.75,0.,-33.));
#955=CARTESIAN_POINT('',(35.75,0.,-33.));
#956=CARTESIAN_POINT('Origin',(37.,0.,-33.));
#957=CARTESIAN_POINT('Origin',(37.,0.,-33.));
#958=CARTESIAN_POINT('Origin',(37.,3.5,-5.));
#959=CARTESIAN_POINT('',(35.75,3.5,-5.));
#960=CARTESIAN_POINT('Origin',(37.,3.5,-5.));
#961=CARTESIAN_POINT('Origin',(37.,0.,-5.));
#962=CARTESIAN_POINT('',(35.75,0.,-5.));
#963=CARTESIAN_POINT('',(35.75,0.,-5.));
#964=CARTESIAN_POINT('Origin',(37.,0.,-5.));
#965=CARTESIAN_POINT('Origin',(37.,0.,-5.));
#966=CARTESIAN_POINT('Origin',(1.5,10.0354989412614,-36.5642253264324));
#967=CARTESIAN_POINT('',(1.5,7.03549894126143,-4.81422532643237));
#968=CARTESIAN_POINT('',(1.5,10.0354989412614,-4.81422532643237));
#969=CARTESIAN_POINT('',(1.5,-3.96450105873858,-4.81422532643237));
#970=CARTESIAN_POINT('',(1.5,10.0354989412614,-31.3142253264324));
#971=CARTESIAN_POINT('',(1.5,10.0354989412614,-28.5642253264324));
#972=CARTESIAN_POINT('',(1.5,7.03549894126144,-31.3142253264324));
#973=CARTESIAN_POINT('',(1.5,-2.46450105873856,-31.3142253264324));
#974=CARTESIAN_POINT('',(1.5,7.03549894126144,-34.6892253264324));
#975=CARTESIAN_POINT('Origin',(1.5,10.0354989412614,-31.3142253264324));
#976=CARTESIAN_POINT('',(2.99999999999999,8.53549894126144,-29.8142253264324));
#977=CARTESIAN_POINT('',(5.91666666666667,5.61883227459476,-26.8975586597657));
#978=CARTESIAN_POINT('',(2.,7.53549894126144,-30.8142253264324));
#979=CARTESIAN_POINT('Origin',(1.5,7.03549894126144,-31.3142253264324));
#980=CARTESIAN_POINT('',(3.,8.53549894126143,-6.31422532643237));
#981=CARTESIAN_POINT('',(5.91666666666666,11.4521656079281,-9.23089199309902));
#982=CARTESIAN_POINT('',(3.,8.53549894126144,-18.0642253264324));
#983=CARTESIAN_POINT('Origin',(1.5,7.03549894126143,-4.81422532643237));
#984=CARTESIAN_POINT('',(2.,9.53549894126143,-5.31422532643237));
#985=CARTESIAN_POINT('Origin',(1.5,10.0354989412614,-4.81422532643237));
#986=CARTESIAN_POINT('Origin',(40.5,3.99912838983504,-1.5));
#987=CARTESIAN_POINT('',(42.,3.99912838983504,-36.5));
#988=CARTESIAN_POINT('',(42.,3.99912838983504,-1.5));
#989=CARTESIAN_POINT('',(42.,3.99912838983504,-0.75));
#990=CARTESIAN_POINT('',(40.5,3.99912838983504,-36.5));
#991=CARTESIAN_POINT('',(40.5,3.99912838983504,-36.5));
#992=CARTESIAN_POINT('',(40.5,3.99912838983504,-1.5));
#993=CARTESIAN_POINT('',(40.5,3.99912838983504,-0.75));
#994=CARTESIAN_POINT('',(40.5,3.99912838983504,-1.5));
#995=CARTESIAN_POINT('Origin',(40.5,6.05721022335722,-36.5));
#996=CARTESIAN_POINT('',(42.,6.05721022335722,-1.5));
#997=CARTESIAN_POINT('',(42.,6.05721022335722,-36.5));
#998=CARTESIAN_POINT('',(42.,6.05721022335722,-18.25));
#999=CARTESIAN_POINT('',(40.5,6.05721022335722,-1.5));
#1000=CARTESIAN_POINT('',(40.5,6.05721022335722,-1.5));
#1001=CARTESIAN_POINT('',(40.5,6.05721022335722,-36.5));
#1002=CARTESIAN_POINT('',(40.5,6.05721022335722,-18.25));
#1003=CARTESIAN_POINT('',(40.5,6.05721022335722,-36.5));
#1004=CARTESIAN_POINT('Origin',(40.5,0.,7.54964538199796E-31));
#1005=CARTESIAN_POINT('',(40.5,10.,-1.5));
#1006=CARTESIAN_POINT('',(40.5,0.,-1.5));
#1007=CARTESIAN_POINT('',(40.5,10.,-36.5));
#1008=CARTESIAN_POINT('',(40.5,10.,-9.5));
#1009=CARTESIAN_POINT('',(40.5,0.,-36.5));
#1010=CARTESIAN_POINT('Origin',(4.93290122996426,3.75888643530416,-36.5));
#1011=CARTESIAN_POINT('',(4.93290122996426,10.,-38.));
#1012=CARTESIAN_POINT('',(4.93290122996426,3.75888643530416,-38.));
#1013=CARTESIAN_POINT('',(4.93290122996425,1.87944321765208,-38.));
#1014=CARTESIAN_POINT('',(4.93290122996426,10.,-36.5));
#1015=CARTESIAN_POINT('',(4.93290122996426,10.,-27.75));
#1016=CARTESIAN_POINT('',(4.93290122996426,3.75888643530416,-36.5));
#1017=CARTESIAN_POINT('',(4.93290122996425,1.87944321765208,-36.5));
#1018=CARTESIAN_POINT('',(4.93290122996426,3.75888643530416,-36.5));
#1019=CARTESIAN_POINT('Origin',(18.823344481098,3.75888643530416,-36.5));
#1020=CARTESIAN_POINT('',(18.823344481098,3.75888643530416,-38.));
#1021=CARTESIAN_POINT('',(30.411672240549,3.75888643530416,-38.));
#1022=CARTESIAN_POINT('',(18.823344481098,3.75888643530416,-36.5));
#1023=CARTESIAN_POINT('',(30.411672240549,3.75888643530416,-36.5));
#1024=CARTESIAN_POINT('',(18.823344481098,3.75888643530416,-36.5));
#1025=CARTESIAN_POINT('Origin',(18.823344481098,10.,-36.5));
#1026=CARTESIAN_POINT('',(18.823344481098,10.,-38.));
#1027=CARTESIAN_POINT('',(18.823344481098,5.,-38.));
#1028=CARTESIAN_POINT('',(18.823344481098,10.,-36.5));
#1029=CARTESIAN_POINT('',(18.823344481098,5.,-36.5));
#1030=CARTESIAN_POINT('',(18.823344481098,10.,-27.75));
#1031=CARTESIAN_POINT('Origin',(21.,10.,-19.));
#1032=CARTESIAN_POINT('',(0.,10.,-38.));
#1033=CARTESIAN_POINT('',(31.5,10.,-38.));
#1034=CARTESIAN_POINT('',(0.,10.,0.));
#1035=CARTESIAN_POINT('',(0.,10.,-28.5));
#1036=CARTESIAN_POINT('',(42.,10.,0.));
#1037=CARTESIAN_POINT('',(10.5,10.,0.));
#1038=CARTESIAN_POINT('',(42.,10.,-38.));
#1039=CARTESIAN_POINT('',(42.,10.,-9.5));
#1040=CARTESIAN_POINT('',(31.5,10.,-38.));
#1041=CARTESIAN_POINT('',(31.5,10.,-36.5));
#1042=CARTESIAN_POINT('',(1.5,10.,-1.5));
#1043=CARTESIAN_POINT('',(10.5,10.,-1.5));
#1044=CARTESIAN_POINT('',(1.5,10.,-36.5));
#1045=CARTESIAN_POINT('',(1.5,10.,-28.5));
#1046=CARTESIAN_POINT('',(31.5,10.,-36.5));
#1047=CARTESIAN_POINT('Origin',(42.,0.,-38.));
#1048=CARTESIAN_POINT('',(42.,0.,-38.));
#1049=CARTESIAN_POINT('',(42.,0.,-38.));
#1050=CARTESIAN_POINT('',(-7.70371977754894E-32,0.,-38.));
#1051=CARTESIAN_POINT('',(42.,0.,-38.));
#1052=CARTESIAN_POINT('',(-7.70371977754894E-32,0.,-38.));
#1053=CARTESIAN_POINT('Origin',(21.,0.,-19.));
#1054=CARTESIAN_POINT('',(0.,0.,0.));
#1055=CARTESIAN_POINT('',(-7.70371977754894E-32,0.,-38.));
#1056=CARTESIAN_POINT('',(42.,0.,7.54964538199796E-31));
#1057=CARTESIAN_POINT('',(42.,0.,7.54964538199796E-31));
#1058=CARTESIAN_POINT('',(0.,0.,0.));
#1059=CARTESIAN_POINT('Origin',(-7.70371977754894E-32,0.,-38.));
#1060=CARTESIAN_POINT('',(0.,0.,0.));
#1061=CARTESIAN_POINT('Origin',(0.,0.,0.));
#1062=CARTESIAN_POINT('',(42.,0.,7.54964538199796E-31));
#1063=CARTESIAN_POINT('Origin',(21.,1.5,-19.));
#1064=CARTESIAN_POINT('',(1.5,1.5,-36.5));
#1065=CARTESIAN_POINT('',(1.5,1.5,-1.5));
#1066=CARTESIAN_POINT('',(1.5,1.5,-28.5));
#1067=CARTESIAN_POINT('',(40.5,1.5,-1.5));
#1068=CARTESIAN_POINT('',(10.5,1.5,-1.5));
#1069=CARTESIAN_POINT('',(40.5,1.5,-36.5));
#1070=CARTESIAN_POINT('',(40.5,1.5,-9.5));
#1071=CARTESIAN_POINT('',(31.5,1.5,-36.5));
#1072=CARTESIAN_POINT('Origin',(1.5,0.,-38.));
#1073=CARTESIAN_POINT('',(1.5,0.,-1.5));
#1074=CARTESIAN_POINT('',(1.5,0.,-36.5));
#1075=CARTESIAN_POINT('Origin',(42.,0.,-36.5));
#1076=CARTESIAN_POINT('',(40.5,0.,-36.5));
#1077=CARTESIAN_POINT('',(42.,1.99956419491752,-36.5));
#1078=CARTESIAN_POINT('Origin',(42.,0.,7.54964538199796E-31));
#1079=CARTESIAN_POINT('',(42.,3.02860511167861,-1.5));
#1080=CARTESIAN_POINT('Origin',(40.5,0.,7.54964538199796E-31));
#1081=CARTESIAN_POINT('',(40.5,0.,-1.5));
#1082=CARTESIAN_POINT('Origin',(2.69630192214213E-32,0.,-1.5));
#1083=CARTESIAN_POINT('',(0.,0.,0.));
#1084=CARTESIAN_POINT('',(0.,0.,0.));
#1085=UNCERTAINTY_MEASURE_WITH_UNIT(LENGTH_MEASURE(0.01),#1093,
'DISTANCE_ACCURACY_VALUE',
'Maximum model space distance between geometric entities at asserted c
onnectivities');
#1086=UNCERTAINTY_MEASURE_WITH_UNIT(LENGTH_MEASURE(0.01),#1093,
'DISTANCE_ACCURACY_VALUE',
'Maximum model space distance between geometric entities at asserted c
onnectivities');
#1087=UNCERTAINTY_MEASURE_WITH_UNIT(LENGTH_MEASURE(0.01),#1093,
'DISTANCE_ACCURACY_VALUE',
'Maximum model space distance between geometric entities at asserted c
onnectivities');
#1088=UNCERTAINTY_MEASURE_WITH_UNIT(LENGTH_MEASURE(0.01),#1093,
'DISTANCE_ACCURACY_VALUE',
'Maximum model space distance between geometric entities at asserted c
onnectivities');
#1089=(
GEOMETRIC_REPRESENTATION_CONTEXT(3)
GLOBAL_UNCERTAINTY_ASSIGNED_CONTEXT((#1085))
GLOBAL_UNIT_ASSIGNED_CONTEXT((#1093,#1095,#1096))
REPRESENTATION_CONTEXT('','3D')
);
#1090=(
GEOMETRIC_REPRESENTATION_CONTEXT(3)
GLOBAL_UNCERTAINTY_ASSIGNED_CONTEXT((#1086))
GLOBAL_UNIT_ASSIGNED_CONTEXT((#1093,#1095,#1096))
REPRESENTATION_CONTEXT('','3D')
);
#1091=(
GEOMETRIC_REPRESENTATION_CONTEXT(3)
GLOBAL_UNCERTAINTY_ASSIGNED_CONTEXT((#1087))
GLOBAL_UNIT_ASSIGNED_CONTEXT((#1093,#1095,#1096))
REPRESENTATION_CONTEXT('','3D')
);
#1092=(
GEOMETRIC_REPRESENTATION_CONTEXT(3)
GLOBAL_UNCERTAINTY_ASSIGNED_CONTEXT((#1088))
GLOBAL_UNIT_ASSIGNED_CONTEXT((#1093,#1095,#1096))
REPRESENTATION_CONTEXT('','3D')
);
#1093=(
LENGTH_UNIT()
NAMED_UNIT(*)
SI_UNIT(.MILLI.,.METRE.)
);
#1094=(
LENGTH_UNIT()
NAMED_UNIT(*)
SI_UNIT($,.METRE.)
);
#1095=(
NAMED_UNIT(*)
PLANE_ANGLE_UNIT()
SI_UNIT($,.RADIAN.)
);
#1096=(
NAMED_UNIT(*)
SI_UNIT($,.STERADIAN.)
SOLID_ANGLE_UNIT()
);
#1097=SHAPE_DEFINITION_REPRESENTATION(#1100,#1105);
#1098=SHAPE_DEFINITION_REPRESENTATION(#1101,#1106);
#1099=SHAPE_DEFINITION_REPRESENTATION(#1102,#1107);
#1100=PRODUCT_DEFINITION_SHAPE('',$,#1109);
#1101=PRODUCT_DEFINITION_SHAPE('',$,#1110);
#1102=PRODUCT_DEFINITION_SHAPE('',$,#1111);
#1103=PRODUCT_DEFINITION_SHAPE($,$,#17);
#1104=PRODUCT_DEFINITION_SHAPE($,$,#18);
#1105=SHAPE_REPRESENTATION('',(#669,#723),#1089);
#1106=SHAPE_REPRESENTATION('',(#670,#722),#1090);
#1107=SHAPE_REPRESENTATION('',(#671),#1091);
#1108=PRODUCT_DEFINITION_CONTEXT('part definition',#1119,'design');
#1109=PRODUCT_DEFINITION('2026-05-19-17-56-53-477','Bottom case',#1112,
#1108);
#1110=PRODUCT_DEFINITION('2026-05-19-17-56-53-478','Enclosure (1)',#1113,
#1108);
#1111=PRODUCT_DEFINITION('2026-05-19-17-56-53-479','Case',#1114,#1108);
#1112=PRODUCT_DEFINITION_FORMATION('',$,#1121);
#1113=PRODUCT_DEFINITION_FORMATION('',$,#1122);
#1114=PRODUCT_DEFINITION_FORMATION('',$,#1123);
#1115=PRODUCT_RELATED_PRODUCT_CATEGORY('Bottom case','Bottom case',(#1121));
#1116=PRODUCT_RELATED_PRODUCT_CATEGORY('Enclosure (1)','Enclosure (1)',
(#1122));
#1117=PRODUCT_RELATED_PRODUCT_CATEGORY('Case','Case',(#1123));
#1118=APPLICATION_PROTOCOL_DEFINITION('international standard',
'automotive_design',2009,#1119);
#1119=APPLICATION_CONTEXT(
'Core Data for Automotive Mechanical Design Process');
#1120=PRODUCT_CONTEXT('part definition',#1119,'mechanical');
#1121=PRODUCT('2026-05-19-17-56-53-477','Bottom case',$,(#1120));
#1122=PRODUCT('2026-05-19-17-56-53-478','Enclosure (1)',$,(#1120));
#1123=PRODUCT('2026-05-19-17-56-53-479','Case',$,(#1120));
#1124=PRESENTATION_STYLE_ASSIGNMENT((#1126));
#1125=PRESENTATION_STYLE_ASSIGNMENT((#1127));
#1126=SURFACE_STYLE_USAGE(.BOTH.,#1128);
#1127=SURFACE_STYLE_USAGE(.BOTH.,#1129);
#1128=SURFACE_SIDE_STYLE('',(#1130));
#1129=SURFACE_SIDE_STYLE('',(#1131));
#1130=SURFACE_STYLE_FILL_AREA(#1132);
#1131=SURFACE_STYLE_FILL_AREA(#1133);
#1132=FILL_AREA_STYLE('Steel - Satin',(#1134));
#1133=FILL_AREA_STYLE('Opaque(160,160,160)',(#1135));
#1134=FILL_AREA_STYLE_COLOUR('Steel - Satin',#1136);
#1135=FILL_AREA_STYLE_COLOUR('Opaque(160,160,160)',#1137);
#1136=COLOUR_RGB('Steel - Satin',0.627450980392157,0.627450980392157,0.627450980392157);
#1137=COLOUR_RGB('Opaque(160,160,160)',0.627450980392157,0.627450980392157,
0.627450980392157);
ENDSEC;
END-ISO-10303-21;
