ISO-10303-21;
HEADER;
/* Generated by software containing ST-Developer
 * from STEP Tools, Inc. (www.steptools.com) 
 */

FILE_DESCRIPTION(
/* description */ (''),
/* implementation_level */ '2;1');

FILE_NAME(
/* name */ 'Top case.step',
/* time_stamp */ '2026-05-20T00:11:55+06:00',
/* author */ (''),
/* organization */ (''),
/* preprocessor_version */ 'ST-DEVELOPER v20.1',
/* originating_system */ 'Autodesk Translation Framework v14.24.0.0',
/* authorisation */ '');

FILE_SCHEMA (('AUTOMOTIVE_DESIGN { 1 0 10303 214 3 1 1 }'));
ENDSEC;

DATA;
#10=MECHANICAL_DESIGN_GEOMETRIC_PRESENTATION_REPRESENTATION('',(#33),#1100);
#11=ITEM_DEFINED_TRANSFORMATION($,$,#682,#718);
#12=ITEM_DEFINED_TRANSFORMATION($,$,#681,#719);
#13=ITEM_DEFINED_TRANSFORMATION($,$,#680,#720);
#14=ITEM_DEFINED_TRANSFORMATION($,$,#679,#721);
#15=ITEM_DEFINED_TRANSFORMATION($,$,#678,#722);
#16=(
REPRESENTATION_RELATIONSHIP($,$,#1127,#1126)
REPRESENTATION_RELATIONSHIP_WITH_TRANSFORMATION(#11)
SHAPE_REPRESENTATION_RELATIONSHIP()
);
#17=(
REPRESENTATION_RELATIONSHIP($,$,#1126,#1125)
REPRESENTATION_RELATIONSHIP_WITH_TRANSFORMATION(#12)
SHAPE_REPRESENTATION_RELATIONSHIP()
);
#18=(
REPRESENTATION_RELATIONSHIP($,$,#1125,#1124)
REPRESENTATION_RELATIONSHIP_WITH_TRANSFORMATION(#13)
SHAPE_REPRESENTATION_RELATIONSHIP()
);
#19=(
REPRESENTATION_RELATIONSHIP($,$,#1124,#1123)
REPRESENTATION_RELATIONSHIP_WITH_TRANSFORMATION(#14)
SHAPE_REPRESENTATION_RELATIONSHIP()
);
#20=(
REPRESENTATION_RELATIONSHIP($,$,#1123,#1122)
REPRESENTATION_RELATIONSHIP_WITH_TRANSFORMATION(#15)
SHAPE_REPRESENTATION_RELATIONSHIP()
);
#21=CONTEXT_DEPENDENT_SHAPE_REPRESENTATION(#16,#1117);
#22=CONTEXT_DEPENDENT_SHAPE_REPRESENTATION(#17,#1118);
#23=CONTEXT_DEPENDENT_SHAPE_REPRESENTATION(#18,#1119);
#24=CONTEXT_DEPENDENT_SHAPE_REPRESENTATION(#19,#1120);
#25=CONTEXT_DEPENDENT_SHAPE_REPRESENTATION(#20,#1121);
#26=NEXT_ASSEMBLY_USAGE_OCCURRENCE('Top Cover:1','Top Cover:1',
'Top Cover:1',#1133,#1134,'Top Cover:1');
#27=NEXT_ASSEMBLY_USAGE_OCCURRENCE('Enclosure:1','Enclosure:1',
'Enclosure:1',#1132,#1133,'Enclosure:1');
#28=NEXT_ASSEMBLY_USAGE_OCCURRENCE('top case:1','top case:1',
'top case:1',#1131,#1132,'top case:1');
#29=NEXT_ASSEMBLY_USAGE_OCCURRENCE('Case:1','Case:1','Case:1',#1130,#1131,
'Case:1');
#30=NEXT_ASSEMBLY_USAGE_OCCURRENCE('Enclosure (1):1','Enclosure (1):1',
'Enclosure (1):1',#1129,#1130,'Enclosure (1):1');
#31=SHAPE_REPRESENTATION_RELATIONSHIP('SRR','None',#1127,#32);
#32=ADVANCED_BREP_SHAPE_REPRESENTATION('',(#34),#1099);
#33=STYLED_ITEM('',(#1157),#34);
#34=MANIFOLD_SOLID_BREP('Body1',#664);
#35=FACE_BOUND('',#84,.T.);
#36=FACE_BOUND('',#96,.T.);
#37=FACE_BOUND('',#98,.T.);
#38=FACE_BOUND('',#107,.T.);
#39=FACE_OUTER_BOUND('',#74,.T.);
#40=FACE_OUTER_BOUND('',#75,.T.);
#41=FACE_OUTER_BOUND('',#76,.T.);
#42=FACE_OUTER_BOUND('',#77,.T.);
#43=FACE_OUTER_BOUND('',#78,.T.);
#44=FACE_OUTER_BOUND('',#79,.T.);
#45=FACE_OUTER_BOUND('',#80,.T.);
#46=FACE_OUTER_BOUND('',#81,.T.);
#47=FACE_OUTER_BOUND('',#82,.T.);
#48=FACE_OUTER_BOUND('',#83,.T.);
#49=FACE_OUTER_BOUND('',#85,.T.);
#50=FACE_OUTER_BOUND('',#86,.T.);
#51=FACE_OUTER_BOUND('',#87,.T.);
#52=FACE_OUTER_BOUND('',#88,.T.);
#53=FACE_OUTER_BOUND('',#89,.T.);
#54=FACE_OUTER_BOUND('',#90,.T.);
#55=FACE_OUTER_BOUND('',#91,.T.);
#56=FACE_OUTER_BOUND('',#92,.T.);
#57=FACE_OUTER_BOUND('',#93,.T.);
#58=FACE_OUTER_BOUND('',#94,.T.);
#59=FACE_OUTER_BOUND('',#95,.T.);
#60=FACE_OUTER_BOUND('',#97,.T.);
#61=FACE_OUTER_BOUND('',#99,.T.);
#62=FACE_OUTER_BOUND('',#100,.T.);
#63=FACE_OUTER_BOUND('',#101,.T.);
#64=FACE_OUTER_BOUND('',#102,.T.);
#65=FACE_OUTER_BOUND('',#103,.T.);
#66=FACE_OUTER_BOUND('',#104,.T.);
#67=FACE_OUTER_BOUND('',#105,.T.);
#68=FACE_OUTER_BOUND('',#106,.T.);
#69=FACE_OUTER_BOUND('',#108,.T.);
#70=FACE_OUTER_BOUND('',#109,.T.);
#71=FACE_OUTER_BOUND('',#110,.T.);
#72=FACE_OUTER_BOUND('',#111,.T.);
#73=FACE_OUTER_BOUND('',#112,.T.);
#74=EDGE_LOOP('',(#424,#425,#426,#427));
#75=EDGE_LOOP('',(#428,#429,#430,#431));
#76=EDGE_LOOP('',(#432,#433,#434,#435,#436,#437,#438,#439));
#77=EDGE_LOOP('',(#440,#441,#442,#443));
#78=EDGE_LOOP('',(#444,#445,#446,#447));
#79=EDGE_LOOP('',(#448,#449,#450,#451));
#80=EDGE_LOOP('',(#452,#453,#454));
#81=EDGE_LOOP('',(#455,#456,#457,#458));
#82=EDGE_LOOP('',(#459,#460,#461));
#83=EDGE_LOOP('',(#462,#463,#464,#465));
#84=EDGE_LOOP('',(#466,#467,#468,#469));
#85=EDGE_LOOP('',(#470,#471,#472,#473,#474));
#86=EDGE_LOOP('',(#475,#476,#477,#478));
#87=EDGE_LOOP('',(#479,#480,#481,#482,#483));
#88=EDGE_LOOP('',(#484,#485,#486,#487));
#89=EDGE_LOOP('',(#488,#489,#490,#491));
#90=EDGE_LOOP('',(#492,#493,#494,#495));
#91=EDGE_LOOP('',(#496,#497,#498,#499));
#92=EDGE_LOOP('',(#500,#501,#502));
#93=EDGE_LOOP('',(#503,#504,#505,#506));
#94=EDGE_LOOP('',(#507,#508,#509));
#95=EDGE_LOOP('',(#510,#511,#512,#513));
#96=EDGE_LOOP('',(#514,#515,#516,#517,#518,#519));
#97=EDGE_LOOP('',(#520,#521,#522,#523));
#98=EDGE_LOOP('',(#524,#525,#526,#527));
#99=EDGE_LOOP('',(#528,#529,#530,#531));
#100=EDGE_LOOP('',(#532,#533,#534,#535,#536));
#101=EDGE_LOOP('',(#537,#538,#539,#540,#541));
#102=EDGE_LOOP('',(#542,#543,#544,#545));
#103=EDGE_LOOP('',(#546,#547,#548,#549));
#104=EDGE_LOOP('',(#550,#551,#552,#553));
#105=EDGE_LOOP('',(#554,#555,#556,#557));
#106=EDGE_LOOP('',(#558,#559,#560,#561,#562,#563,#564,#565));
#107=EDGE_LOOP('',(#566,#567,#568,#569,#570,#571,#572,#573));
#108=EDGE_LOOP('',(#574,#575,#576,#577));
#109=EDGE_LOOP('',(#578,#579,#580,#581));
#110=EDGE_LOOP('',(#582,#583,#584,#585));
#111=EDGE_LOOP('',(#586,#587,#588,#589));
#112=EDGE_LOOP('',(#590,#591,#592,#593));
#113=LINE('',#909,#198);
#114=LINE('',#911,#199);
#115=LINE('',#913,#200);
#116=LINE('',#914,#201);
#117=LINE('',#917,#202);
#118=LINE('',#919,#203);
#119=LINE('',#920,#204);
#120=LINE('',#924,#205);
#121=LINE('',#926,#206);
#122=LINE('',#928,#207);
#123=LINE('',#930,#208);
#124=LINE('',#932,#209);
#125=LINE('',#934,#210);
#126=LINE('',#936,#211);
#127=LINE('',#937,#212);
#128=LINE('',#940,#213);
#129=LINE('',#942,#214);
#130=LINE('',#943,#215);
#131=LINE('',#946,#216);
#132=LINE('',#948,#217);
#133=LINE('',#949,#218);
#134=LINE('',#953,#219);
#135=LINE('',#955,#220);
#136=LINE('',#957,#221);
#137=LINE('',#958,#222);
#138=LINE('',#961,#223);
#139=LINE('',#962,#224);
#140=LINE('',#965,#225);
#141=LINE('',#966,#226);
#142=LINE('',#968,#227);
#143=LINE('',#971,#228);
#144=LINE('',#973,#229);
#145=LINE('',#974,#230);
#146=LINE('',#977,#231);
#147=LINE('',#978,#232);
#148=LINE('',#981,#233);
#149=LINE('',#982,#234);
#150=LINE('',#985,#235);
#151=LINE('',#986,#236);
#152=LINE('',#989,#237);
#153=LINE('',#990,#238);
#154=LINE('',#992,#239);
#155=LINE('',#994,#240);
#156=LINE('',#998,#241);
#157=LINE('',#1000,#242);
#158=LINE('',#1002,#243);
#159=LINE('',#1003,#244);
#160=LINE('',#1006,#245);
#161=LINE('',#1007,#246);
#162=LINE('',#1010,#247);
#163=LINE('',#1011,#248);
#164=LINE('',#1013,#249);
#165=LINE('',#1017,#250);
#166=LINE('',#1019,#251);
#167=LINE('',#1021,#252);
#168=LINE('',#1022,#253);
#169=LINE('',#1025,#254);
#170=LINE('',#1027,#255);
#171=LINE('',#1029,#256);
#172=LINE('',#1031,#257);
#173=LINE('',#1033,#258);
#174=LINE('',#1034,#259);
#175=LINE('',#1037,#260);
#176=LINE('',#1039,#261);
#177=LINE('',#1040,#262);
#178=LINE('',#1042,#263);
#179=LINE('',#1043,#264);
#180=LINE('',#1046,#265);
#181=LINE('',#1047,#266);
#182=LINE('',#1050,#267);
#183=LINE('',#1051,#268);
#184=LINE('',#1054,#269);
#185=LINE('',#1055,#270);
#186=LINE('',#1058,#271);
#187=LINE('',#1059,#272);
#188=LINE('',#1061,#273);
#189=LINE('',#1063,#274);
#190=LINE('',#1067,#275);
#191=LINE('',#1069,#276);
#192=LINE('',#1070,#277);
#193=LINE('',#1073,#278);
#194=LINE('',#1074,#279);
#195=LINE('',#1077,#280);
#196=LINE('',#1078,#281);
#197=LINE('',#1080,#282);
#198=VECTOR('',#737,10.);
#199=VECTOR('',#738,10.);
#200=VECTOR('',#739,10.);
#201=VECTOR('',#740,10.);
#202=VECTOR('',#743,10.);
#203=VECTOR('',#744,10.);
#204=VECTOR('',#745,10.);
#205=VECTOR('',#748,10.);
#206=VECTOR('',#749,10.);
#207=VECTOR('',#750,10.);
#208=VECTOR('',#751,10.);
#209=VECTOR('',#752,10.);
#210=VECTOR('',#753,10.);
#211=VECTOR('',#754,10.);
#212=VECTOR('',#755,10.);
#213=VECTOR('',#758,10.);
#214=VECTOR('',#759,10.);
#215=VECTOR('',#760,10.);
#216=VECTOR('',#763,10.);
#217=VECTOR('',#764,10.);
#218=VECTOR('',#765,10.);
#219=VECTOR('',#768,10.);
#220=VECTOR('',#769,10.);
#221=VECTOR('',#770,10.);
#222=VECTOR('',#771,10.);
#223=VECTOR('',#774,10.);
#224=VECTOR('',#775,10.);
#225=VECTOR('',#778,10.);
#226=VECTOR('',#779,10.);
#227=VECTOR('',#782,10.);
#228=VECTOR('',#785,10.);
#229=VECTOR('',#786,10.);
#230=VECTOR('',#787,10.);
#231=VECTOR('',#790,10.);
#232=VECTOR('',#791,10.);
#233=VECTOR('',#794,10.);
#234=VECTOR('',#795,10.);
#235=VECTOR('',#798,10.);
#236=VECTOR('',#799,10.);
#237=VECTOR('',#802,10.);
#238=VECTOR('',#803,10.);
#239=VECTOR('',#806,10.);
#240=VECTOR('',#809,10.);
#241=VECTOR('',#812,10.);
#242=VECTOR('',#813,10.);
#243=VECTOR('',#814,10.);
#244=VECTOR('',#815,10.);
#245=VECTOR('',#818,10.);
#246=VECTOR('',#819,10.);
#247=VECTOR('',#822,10.);
#248=VECTOR('',#823,10.);
#249=VECTOR('',#826,10.);
#250=VECTOR('',#829,10.);
#251=VECTOR('',#830,10.);
#252=VECTOR('',#831,10.);
#253=VECTOR('',#832,10.);
#254=VECTOR('',#833,10.);
#255=VECTOR('',#834,10.);
#256=VECTOR('',#835,10.);
#257=VECTOR('',#836,10.);
#258=VECTOR('',#837,10.);
#259=VECTOR('',#838,10.);
#260=VECTOR('',#841,10.);
#261=VECTOR('',#842,10.);
#262=VECTOR('',#843,10.);
#263=VECTOR('',#846,10.);
#264=VECTOR('',#847,10.);
#265=VECTOR('',#850,10.);
#266=VECTOR('',#851,10.);
#267=VECTOR('',#854,10.);
#268=VECTOR('',#855,10.);
#269=VECTOR('',#858,10.);
#270=VECTOR('',#859,10.);
#271=VECTOR('',#862,10.);
#272=VECTOR('',#863,10.);
#273=VECTOR('',#866,10.);
#274=VECTOR('',#869,10.);
#275=VECTOR('',#874,10.);
#276=VECTOR('',#875,10.);
#277=VECTOR('',#876,10.);
#278=VECTOR('',#879,10.);
#279=VECTOR('',#880,10.);
#280=VECTOR('',#883,10.);
#281=VECTOR('',#884,10.);
#282=VECTOR('',#887,10.);
#283=VERTEX_POINT('',#907);
#284=VERTEX_POINT('',#908);
#285=VERTEX_POINT('',#910);
#286=VERTEX_POINT('',#912);
#287=VERTEX_POINT('',#916);
#288=VERTEX_POINT('',#918);
#289=VERTEX_POINT('',#922);
#290=VERTEX_POINT('',#923);
#291=VERTEX_POINT('',#925);
#292=VERTEX_POINT('',#927);
#293=VERTEX_POINT('',#929);
#294=VERTEX_POINT('',#931);
#295=VERTEX_POINT('',#933);
#296=VERTEX_POINT('',#935);
#297=VERTEX_POINT('',#939);
#298=VERTEX_POINT('',#941);
#299=VERTEX_POINT('',#945);
#300=VERTEX_POINT('',#947);
#301=VERTEX_POINT('',#951);
#302=VERTEX_POINT('',#952);
#303=VERTEX_POINT('',#954);
#304=VERTEX_POINT('',#956);
#305=VERTEX_POINT('',#960);
#306=VERTEX_POINT('',#964);
#307=VERTEX_POINT('',#970);
#308=VERTEX_POINT('',#972);
#309=VERTEX_POINT('',#976);
#310=VERTEX_POINT('',#980);
#311=VERTEX_POINT('',#984);
#312=VERTEX_POINT('',#988);
#313=VERTEX_POINT('',#996);
#314=VERTEX_POINT('',#997);
#315=VERTEX_POINT('',#999);
#316=VERTEX_POINT('',#1001);
#317=VERTEX_POINT('',#1005);
#318=VERTEX_POINT('',#1009);
#319=VERTEX_POINT('',#1015);
#320=VERTEX_POINT('',#1016);
#321=VERTEX_POINT('',#1018);
#322=VERTEX_POINT('',#1020);
#323=VERTEX_POINT('',#1023);
#324=VERTEX_POINT('',#1024);
#325=VERTEX_POINT('',#1026);
#326=VERTEX_POINT('',#1028);
#327=VERTEX_POINT('',#1030);
#328=VERTEX_POINT('',#1032);
#329=VERTEX_POINT('',#1036);
#330=VERTEX_POINT('',#1038);
#331=VERTEX_POINT('',#1045);
#332=VERTEX_POINT('',#1049);
#333=VERTEX_POINT('',#1053);
#334=VERTEX_POINT('',#1057);
#335=VERTEX_POINT('',#1066);
#336=VERTEX_POINT('',#1068);
#337=VERTEX_POINT('',#1072);
#338=VERTEX_POINT('',#1076);
#339=EDGE_CURVE('',#283,#284,#113,.T.);
#340=EDGE_CURVE('',#283,#285,#114,.T.);
#341=EDGE_CURVE('',#285,#286,#115,.F.);
#342=EDGE_CURVE('',#286,#284,#116,.T.);
#343=EDGE_CURVE('',#286,#287,#117,.T.);
#344=EDGE_CURVE('',#288,#287,#118,.F.);
#345=EDGE_CURVE('',#284,#288,#119,.T.);
#346=EDGE_CURVE('',#289,#290,#120,.T.);
#347=EDGE_CURVE('',#290,#291,#121,.T.);
#348=EDGE_CURVE('',#291,#292,#122,.T.);
#349=EDGE_CURVE('',#292,#293,#123,.T.);
#350=EDGE_CURVE('',#293,#294,#124,.T.);
#351=EDGE_CURVE('',#294,#295,#125,.T.);
#352=EDGE_CURVE('',#295,#296,#126,.T.);
#353=EDGE_CURVE('',#296,#289,#127,.T.);
#354=EDGE_CURVE('',#297,#296,#128,.T.);
#355=EDGE_CURVE('',#298,#297,#129,.T.);
#356=EDGE_CURVE('',#289,#298,#130,.T.);
#357=EDGE_CURVE('',#294,#299,#131,.T.);
#358=EDGE_CURVE('',#300,#299,#132,.F.);
#359=EDGE_CURVE('',#295,#300,#133,.F.);
#360=EDGE_CURVE('',#301,#302,#134,.F.);
#361=EDGE_CURVE('',#301,#303,#135,.T.);
#362=EDGE_CURVE('',#304,#303,#136,.F.);
#363=EDGE_CURVE('',#302,#304,#137,.F.);
#364=EDGE_CURVE('',#302,#305,#138,.F.);
#365=EDGE_CURVE('',#305,#304,#139,.F.);
#366=EDGE_CURVE('',#305,#306,#140,.F.);
#367=EDGE_CURVE('',#306,#303,#141,.F.);
#368=EDGE_CURVE('',#306,#301,#142,.F.);
#369=EDGE_CURVE('',#290,#307,#143,.F.);
#370=EDGE_CURVE('',#308,#307,#144,.T.);
#371=EDGE_CURVE('',#291,#308,#145,.T.);
#372=EDGE_CURVE('',#309,#300,#146,.F.);
#373=EDGE_CURVE('',#297,#309,#147,.T.);
#374=EDGE_CURVE('',#310,#299,#148,.F.);
#375=EDGE_CURVE('',#309,#310,#149,.T.);
#376=EDGE_CURVE('',#293,#311,#150,.T.);
#377=EDGE_CURVE('',#310,#311,#151,.T.);
#378=EDGE_CURVE('',#292,#312,#152,.F.);
#379=EDGE_CURVE('',#311,#312,#153,.T.);
#380=EDGE_CURVE('',#312,#308,#154,.T.);
#381=EDGE_CURVE('',#307,#298,#155,.T.);
#382=EDGE_CURVE('',#313,#314,#156,.T.);
#383=EDGE_CURVE('',#314,#315,#157,.T.);
#384=EDGE_CURVE('',#315,#316,#158,.F.);
#385=EDGE_CURVE('',#313,#316,#159,.T.);
#386=EDGE_CURVE('',#314,#317,#160,.T.);
#387=EDGE_CURVE('',#317,#315,#161,.T.);
#388=EDGE_CURVE('',#317,#318,#162,.T.);
#389=EDGE_CURVE('',#318,#316,#163,.T.);
#390=EDGE_CURVE('',#318,#313,#164,.T.);
#391=EDGE_CURVE('',#319,#320,#165,.T.);
#392=EDGE_CURVE('',#321,#319,#166,.T.);
#393=EDGE_CURVE('',#322,#321,#167,.T.);
#394=EDGE_CURVE('',#320,#322,#168,.T.);
#395=EDGE_CURVE('',#323,#324,#169,.T.);
#396=EDGE_CURVE('',#324,#325,#170,.T.);
#397=EDGE_CURVE('',#325,#326,#171,.T.);
#398=EDGE_CURVE('',#326,#327,#172,.T.);
#399=EDGE_CURVE('',#327,#328,#173,.T.);
#400=EDGE_CURVE('',#328,#323,#174,.T.);
#401=EDGE_CURVE('',#324,#329,#175,.T.);
#402=EDGE_CURVE('',#330,#329,#176,.T.);
#403=EDGE_CURVE('',#325,#330,#177,.T.);
#404=EDGE_CURVE('',#327,#288,#178,.T.);
#405=EDGE_CURVE('',#328,#287,#179,.T.);
#406=EDGE_CURVE('',#331,#327,#180,.T.);
#407=EDGE_CURVE('',#331,#283,#181,.T.);
#408=EDGE_CURVE('',#328,#332,#182,.T.);
#409=EDGE_CURVE('',#285,#332,#183,.T.);
#410=EDGE_CURVE('',#326,#333,#184,.T.);
#411=EDGE_CURVE('',#331,#333,#185,.T.);
#412=EDGE_CURVE('',#334,#332,#186,.T.);
#413=EDGE_CURVE('',#323,#334,#187,.T.);
#414=EDGE_CURVE('',#329,#334,#188,.T.);
#415=EDGE_CURVE('',#333,#330,#189,.T.);
#416=EDGE_CURVE('',#321,#335,#190,.T.);
#417=EDGE_CURVE('',#336,#335,#191,.T.);
#418=EDGE_CURVE('',#322,#336,#192,.T.);
#419=EDGE_CURVE('',#337,#336,#193,.T.);
#420=EDGE_CURVE('',#320,#337,#194,.T.);
#421=EDGE_CURVE('',#338,#337,#195,.T.);
#422=EDGE_CURVE('',#319,#338,#196,.T.);
#423=EDGE_CURVE('',#335,#338,#197,.T.);
#424=ORIENTED_EDGE('',*,*,#339,.F.);
#425=ORIENTED_EDGE('',*,*,#340,.T.);
#426=ORIENTED_EDGE('',*,*,#341,.T.);
#427=ORIENTED_EDGE('',*,*,#342,.T.);
#428=ORIENTED_EDGE('',*,*,#342,.F.);
#429=ORIENTED_EDGE('',*,*,#343,.T.);
#430=ORIENTED_EDGE('',*,*,#344,.F.);
#431=ORIENTED_EDGE('',*,*,#345,.F.);
#432=ORIENTED_EDGE('',*,*,#346,.T.);
#433=ORIENTED_EDGE('',*,*,#347,.T.);
#434=ORIENTED_EDGE('',*,*,#348,.T.);
#435=ORIENTED_EDGE('',*,*,#349,.T.);
#436=ORIENTED_EDGE('',*,*,#350,.T.);
#437=ORIENTED_EDGE('',*,*,#351,.T.);
#438=ORIENTED_EDGE('',*,*,#352,.T.);
#439=ORIENTED_EDGE('',*,*,#353,.T.);
#440=ORIENTED_EDGE('',*,*,#353,.F.);
#441=ORIENTED_EDGE('',*,*,#354,.F.);
#442=ORIENTED_EDGE('',*,*,#355,.F.);
#443=ORIENTED_EDGE('',*,*,#356,.F.);
#444=ORIENTED_EDGE('',*,*,#351,.F.);
#445=ORIENTED_EDGE('',*,*,#357,.T.);
#446=ORIENTED_EDGE('',*,*,#358,.F.);
#447=ORIENTED_EDGE('',*,*,#359,.F.);
#448=ORIENTED_EDGE('',*,*,#360,.F.);
#449=ORIENTED_EDGE('',*,*,#361,.T.);
#450=ORIENTED_EDGE('',*,*,#362,.F.);
#451=ORIENTED_EDGE('',*,*,#363,.F.);
#452=ORIENTED_EDGE('',*,*,#364,.F.);
#453=ORIENTED_EDGE('',*,*,#363,.T.);
#454=ORIENTED_EDGE('',*,*,#365,.F.);
#455=ORIENTED_EDGE('',*,*,#366,.F.);
#456=ORIENTED_EDGE('',*,*,#365,.T.);
#457=ORIENTED_EDGE('',*,*,#362,.T.);
#458=ORIENTED_EDGE('',*,*,#367,.F.);
#459=ORIENTED_EDGE('',*,*,#368,.F.);
#460=ORIENTED_EDGE('',*,*,#367,.T.);
#461=ORIENTED_EDGE('',*,*,#361,.F.);
#462=ORIENTED_EDGE('',*,*,#347,.F.);
#463=ORIENTED_EDGE('',*,*,#369,.T.);
#464=ORIENTED_EDGE('',*,*,#370,.F.);
#465=ORIENTED_EDGE('',*,*,#371,.F.);
#466=ORIENTED_EDGE('',*,*,#366,.T.);
#467=ORIENTED_EDGE('',*,*,#368,.T.);
#468=ORIENTED_EDGE('',*,*,#360,.T.);
#469=ORIENTED_EDGE('',*,*,#364,.T.);
#470=ORIENTED_EDGE('',*,*,#352,.F.);
#471=ORIENTED_EDGE('',*,*,#359,.T.);
#472=ORIENTED_EDGE('',*,*,#372,.F.);
#473=ORIENTED_EDGE('',*,*,#373,.F.);
#474=ORIENTED_EDGE('',*,*,#354,.T.);
#475=ORIENTED_EDGE('',*,*,#358,.T.);
#476=ORIENTED_EDGE('',*,*,#374,.F.);
#477=ORIENTED_EDGE('',*,*,#375,.F.);
#478=ORIENTED_EDGE('',*,*,#372,.T.);
#479=ORIENTED_EDGE('',*,*,#350,.F.);
#480=ORIENTED_EDGE('',*,*,#376,.T.);
#481=ORIENTED_EDGE('',*,*,#377,.F.);
#482=ORIENTED_EDGE('',*,*,#374,.T.);
#483=ORIENTED_EDGE('',*,*,#357,.F.);
#484=ORIENTED_EDGE('',*,*,#349,.F.);
#485=ORIENTED_EDGE('',*,*,#378,.T.);
#486=ORIENTED_EDGE('',*,*,#379,.F.);
#487=ORIENTED_EDGE('',*,*,#376,.F.);
#488=ORIENTED_EDGE('',*,*,#348,.F.);
#489=ORIENTED_EDGE('',*,*,#371,.T.);
#490=ORIENTED_EDGE('',*,*,#380,.F.);
#491=ORIENTED_EDGE('',*,*,#378,.F.);
#492=ORIENTED_EDGE('',*,*,#346,.F.);
#493=ORIENTED_EDGE('',*,*,#356,.T.);
#494=ORIENTED_EDGE('',*,*,#381,.F.);
#495=ORIENTED_EDGE('',*,*,#369,.F.);
#496=ORIENTED_EDGE('',*,*,#382,.T.);
#497=ORIENTED_EDGE('',*,*,#383,.T.);
#498=ORIENTED_EDGE('',*,*,#384,.T.);
#499=ORIENTED_EDGE('',*,*,#385,.F.);
#500=ORIENTED_EDGE('',*,*,#386,.T.);
#501=ORIENTED_EDGE('',*,*,#387,.T.);
#502=ORIENTED_EDGE('',*,*,#383,.F.);
#503=ORIENTED_EDGE('',*,*,#388,.T.);
#504=ORIENTED_EDGE('',*,*,#389,.T.);
#505=ORIENTED_EDGE('',*,*,#384,.F.);
#506=ORIENTED_EDGE('',*,*,#387,.F.);
#507=ORIENTED_EDGE('',*,*,#390,.T.);
#508=ORIENTED_EDGE('',*,*,#385,.T.);
#509=ORIENTED_EDGE('',*,*,#389,.F.);
#510=ORIENTED_EDGE('',*,*,#391,.F.);
#511=ORIENTED_EDGE('',*,*,#392,.F.);
#512=ORIENTED_EDGE('',*,*,#393,.F.);
#513=ORIENTED_EDGE('',*,*,#394,.F.);
#514=ORIENTED_EDGE('',*,*,#395,.T.);
#515=ORIENTED_EDGE('',*,*,#396,.T.);
#516=ORIENTED_EDGE('',*,*,#397,.T.);
#517=ORIENTED_EDGE('',*,*,#398,.T.);
#518=ORIENTED_EDGE('',*,*,#399,.T.);
#519=ORIENTED_EDGE('',*,*,#400,.T.);
#520=ORIENTED_EDGE('',*,*,#396,.F.);
#521=ORIENTED_EDGE('',*,*,#401,.T.);
#522=ORIENTED_EDGE('',*,*,#402,.F.);
#523=ORIENTED_EDGE('',*,*,#403,.F.);
#524=ORIENTED_EDGE('',*,*,#388,.F.);
#525=ORIENTED_EDGE('',*,*,#386,.F.);
#526=ORIENTED_EDGE('',*,*,#382,.F.);
#527=ORIENTED_EDGE('',*,*,#390,.F.);
#528=ORIENTED_EDGE('',*,*,#404,.T.);
#529=ORIENTED_EDGE('',*,*,#344,.T.);
#530=ORIENTED_EDGE('',*,*,#405,.F.);
#531=ORIENTED_EDGE('',*,*,#399,.F.);
#532=ORIENTED_EDGE('',*,*,#404,.F.);
#533=ORIENTED_EDGE('',*,*,#406,.F.);
#534=ORIENTED_EDGE('',*,*,#407,.T.);
#535=ORIENTED_EDGE('',*,*,#339,.T.);
#536=ORIENTED_EDGE('',*,*,#345,.T.);
#537=ORIENTED_EDGE('',*,*,#408,.F.);
#538=ORIENTED_EDGE('',*,*,#405,.T.);
#539=ORIENTED_EDGE('',*,*,#343,.F.);
#540=ORIENTED_EDGE('',*,*,#341,.F.);
#541=ORIENTED_EDGE('',*,*,#409,.T.);
#542=ORIENTED_EDGE('',*,*,#406,.T.);
#543=ORIENTED_EDGE('',*,*,#398,.F.);
#544=ORIENTED_EDGE('',*,*,#410,.T.);
#545=ORIENTED_EDGE('',*,*,#411,.F.);
#546=ORIENTED_EDGE('',*,*,#408,.T.);
#547=ORIENTED_EDGE('',*,*,#412,.F.);
#548=ORIENTED_EDGE('',*,*,#413,.F.);
#549=ORIENTED_EDGE('',*,*,#400,.F.);
#550=ORIENTED_EDGE('',*,*,#395,.F.);
#551=ORIENTED_EDGE('',*,*,#413,.T.);
#552=ORIENTED_EDGE('',*,*,#414,.F.);
#553=ORIENTED_EDGE('',*,*,#401,.F.);
#554=ORIENTED_EDGE('',*,*,#397,.F.);
#555=ORIENTED_EDGE('',*,*,#403,.T.);
#556=ORIENTED_EDGE('',*,*,#415,.F.);
#557=ORIENTED_EDGE('',*,*,#410,.F.);
#558=ORIENTED_EDGE('',*,*,#407,.F.);
#559=ORIENTED_EDGE('',*,*,#411,.T.);
#560=ORIENTED_EDGE('',*,*,#415,.T.);
#561=ORIENTED_EDGE('',*,*,#402,.T.);
#562=ORIENTED_EDGE('',*,*,#414,.T.);
#563=ORIENTED_EDGE('',*,*,#412,.T.);
#564=ORIENTED_EDGE('',*,*,#409,.F.);
#565=ORIENTED_EDGE('',*,*,#340,.F.);
#566=ORIENTED_EDGE('',*,*,#370,.T.);
#567=ORIENTED_EDGE('',*,*,#381,.T.);
#568=ORIENTED_EDGE('',*,*,#355,.T.);
#569=ORIENTED_EDGE('',*,*,#373,.T.);
#570=ORIENTED_EDGE('',*,*,#375,.T.);
#571=ORIENTED_EDGE('',*,*,#377,.T.);
#572=ORIENTED_EDGE('',*,*,#379,.T.);
#573=ORIENTED_EDGE('',*,*,#380,.T.);
#574=ORIENTED_EDGE('',*,*,#393,.T.);
#575=ORIENTED_EDGE('',*,*,#416,.T.);
#576=ORIENTED_EDGE('',*,*,#417,.F.);
#577=ORIENTED_EDGE('',*,*,#418,.F.);
#578=ORIENTED_EDGE('',*,*,#394,.T.);
#579=ORIENTED_EDGE('',*,*,#418,.T.);
#580=ORIENTED_EDGE('',*,*,#419,.F.);
#581=ORIENTED_EDGE('',*,*,#420,.F.);
#582=ORIENTED_EDGE('',*,*,#391,.T.);
#583=ORIENTED_EDGE('',*,*,#420,.T.);
#584=ORIENTED_EDGE('',*,*,#421,.F.);
#585=ORIENTED_EDGE('',*,*,#422,.F.);
#586=ORIENTED_EDGE('',*,*,#392,.T.);
#587=ORIENTED_EDGE('',*,*,#422,.T.);
#588=ORIENTED_EDGE('',*,*,#423,.F.);
#589=ORIENTED_EDGE('',*,*,#416,.F.);
#590=ORIENTED_EDGE('',*,*,#423,.T.);
#591=ORIENTED_EDGE('',*,*,#421,.T.);
#592=ORIENTED_EDGE('',*,*,#419,.T.);
#593=ORIENTED_EDGE('',*,*,#417,.T.);
#594=PLANE('',#683);
#595=PLANE('',#684);
#596=PLANE('',#685);
#597=PLANE('',#686);
#598=PLANE('',#687);
#599=PLANE('',#688);
#600=PLANE('',#689);
#601=PLANE('',#690);
#602=PLANE('',#691);
#603=PLANE('',#692);
#604=PLANE('',#693);
#605=PLANE('',#694);
#606=PLANE('',#695);
#607=PLANE('',#696);
#608=PLANE('',#697);
#609=PLANE('',#698);
#610=PLANE('',#699);
#611=PLANE('',#700);
#612=PLANE('',#701);
#613=PLANE('',#702);
#614=PLANE('',#703);
#615=PLANE('',#704);
#616=PLANE('',#705);
#617=PLANE('',#706);
#618=PLANE('',#707);
#619=PLANE('',#708);
#620=PLANE('',#709);
#621=PLANE('',#710);
#622=PLANE('',#711);
#623=PLANE('',#712);
#624=PLANE('',#713);
#625=PLANE('',#714);
#626=PLANE('',#715);
#627=PLANE('',#716);
#628=PLANE('',#717);
#629=ADVANCED_FACE('',(#39),#594,.T.);
#630=ADVANCED_FACE('',(#40),#595,.F.);
#631=ADVANCED_FACE('',(#41),#596,.F.);
#632=ADVANCED_FACE('',(#42),#597,.F.);
#633=ADVANCED_FACE('',(#43),#598,.T.);
#634=ADVANCED_FACE('',(#44),#599,.F.);
#635=ADVANCED_FACE('',(#45),#600,.F.);
#636=ADVANCED_FACE('',(#46),#601,.F.);
#637=ADVANCED_FACE('',(#47),#602,.F.);
#638=ADVANCED_FACE('',(#48,#35),#603,.F.);
#639=ADVANCED_FACE('',(#49),#604,.T.);
#640=ADVANCED_FACE('',(#50),#605,.T.);
#641=ADVANCED_FACE('',(#51),#606,.T.);
#642=ADVANCED_FACE('',(#52),#607,.F.);
#643=ADVANCED_FACE('',(#53),#608,.F.);
#644=ADVANCED_FACE('',(#54),#609,.F.);
#645=ADVANCED_FACE('',(#55),#610,.T.);
#646=ADVANCED_FACE('',(#56),#611,.T.);
#647=ADVANCED_FACE('',(#57),#612,.T.);
#648=ADVANCED_FACE('',(#58),#613,.T.);
#649=ADVANCED_FACE('',(#59,#36),#614,.F.);
#650=ADVANCED_FACE('',(#60,#37),#615,.T.);
#651=ADVANCED_FACE('',(#61),#616,.F.);
#652=ADVANCED_FACE('',(#62),#617,.F.);
#653=ADVANCED_FACE('',(#63),#618,.F.);
#654=ADVANCED_FACE('',(#64),#619,.T.);
#655=ADVANCED_FACE('',(#65),#620,.T.);
#656=ADVANCED_FACE('',(#66),#621,.T.);
#657=ADVANCED_FACE('',(#67),#622,.T.);
#658=ADVANCED_FACE('',(#68,#38),#623,.T.);
#659=ADVANCED_FACE('',(#69),#624,.T.);
#660=ADVANCED_FACE('',(#70),#625,.T.);
#661=ADVANCED_FACE('',(#71),#626,.T.);
#662=ADVANCED_FACE('',(#72),#627,.T.);
#663=ADVANCED_FACE('',(#73),#628,.T.);
#664=CLOSED_SHELL('',(#629,#630,#631,#632,#633,#634,#635,#636,#637,#638,
#639,#640,#641,#642,#643,#644,#645,#646,#647,#648,#649,#650,#651,#652,#653,
#654,#655,#656,#657,#658,#659,#660,#661,#662,#663));
#665=DERIVED_UNIT_ELEMENT(#667,1.);
#666=DERIVED_UNIT_ELEMENT(#1102,-3.);
#667=(
MASS_UNIT()
NAMED_UNIT(*)
SI_UNIT(.KILO.,.GRAM.)
);
#668=DERIVED_UNIT((#665,#666));
#669=MEASURE_REPRESENTATION_ITEM('density measure',
POSITIVE_RATIO_MEASURE(7850.),#668);
#670=PROPERTY_DEFINITION_REPRESENTATION(#675,#672);
#671=PROPERTY_DEFINITION_REPRESENTATION(#676,#673);
#672=REPRESENTATION('material name',(#674),#1099);
#673=REPRESENTATION('density',(#669),#1099);
#674=DESCRIPTIVE_REPRESENTATION_ITEM('Steel','Steel');
#675=PROPERTY_DEFINITION('material property','material name',#1134);
#676=PROPERTY_DEFINITION('material property','density of part',#1134);
#677=AXIS2_PLACEMENT_3D('',#900,#723,#724);
#678=AXIS2_PLACEMENT_3D('',#901,#725,#726);
#679=AXIS2_PLACEMENT_3D('',#902,#727,#728);
#680=AXIS2_PLACEMENT_3D('',#903,#729,#730);
#681=AXIS2_PLACEMENT_3D('',#904,#731,#732);
#682=AXIS2_PLACEMENT_3D('',#905,#733,#734);
#683=AXIS2_PLACEMENT_3D('',#906,#735,#736);
#684=AXIS2_PLACEMENT_3D('',#915,#741,#742);
#685=AXIS2_PLACEMENT_3D('',#921,#746,#747);
#686=AXIS2_PLACEMENT_3D('',#938,#756,#757);
#687=AXIS2_PLACEMENT_3D('',#944,#761,#762);
#688=AXIS2_PLACEMENT_3D('',#950,#766,#767);
#689=AXIS2_PLACEMENT_3D('',#959,#772,#773);
#690=AXIS2_PLACEMENT_3D('',#963,#776,#777);
#691=AXIS2_PLACEMENT_3D('',#967,#780,#781);
#692=AXIS2_PLACEMENT_3D('',#969,#783,#784);
#693=AXIS2_PLACEMENT_3D('',#975,#788,#789);
#694=AXIS2_PLACEMENT_3D('',#979,#792,#793);
#695=AXIS2_PLACEMENT_3D('',#983,#796,#797);
#696=AXIS2_PLACEMENT_3D('',#987,#800,#801);
#697=AXIS2_PLACEMENT_3D('',#991,#804,#805);
#698=AXIS2_PLACEMENT_3D('',#993,#807,#808);
#699=AXIS2_PLACEMENT_3D('',#995,#810,#811);
#700=AXIS2_PLACEMENT_3D('',#1004,#816,#817);
#701=AXIS2_PLACEMENT_3D('',#1008,#820,#821);
#702=AXIS2_PLACEMENT_3D('',#1012,#824,#825);
#703=AXIS2_PLACEMENT_3D('',#1014,#827,#828);
#704=AXIS2_PLACEMENT_3D('',#1035,#839,#840);
#705=AXIS2_PLACEMENT_3D('',#1041,#844,#845);
#706=AXIS2_PLACEMENT_3D('',#1044,#848,#849);
#707=AXIS2_PLACEMENT_3D('',#1048,#852,#853);
#708=AXIS2_PLACEMENT_3D('',#1052,#856,#857);
#709=AXIS2_PLACEMENT_3D('',#1056,#860,#861);
#710=AXIS2_PLACEMENT_3D('',#1060,#864,#865);
#711=AXIS2_PLACEMENT_3D('',#1062,#867,#868);
#712=AXIS2_PLACEMENT_3D('',#1064,#870,#871);
#713=AXIS2_PLACEMENT_3D('',#1065,#872,#873);
#714=AXIS2_PLACEMENT_3D('',#1071,#877,#878);
#715=AXIS2_PLACEMENT_3D('',#1075,#881,#882);
#716=AXIS2_PLACEMENT_3D('',#1079,#885,#886);
#717=AXIS2_PLACEMENT_3D('',#1081,#888,#889);
#718=AXIS2_PLACEMENT_3D('',#1082,#890,#891);
#719=AXIS2_PLACEMENT_3D('',#1083,#892,#893);
#720=AXIS2_PLACEMENT_3D('',#1084,#894,#895);
#721=AXIS2_PLACEMENT_3D('',#1085,#896,#897);
#722=AXIS2_PLACEMENT_3D('',#1086,#898,#899);
#723=DIRECTION('axis',(0.,0.,1.));
#724=DIRECTION('refdir',(1.,0.,0.));
#725=DIRECTION('axis',(0.,0.,1.));
#726=DIRECTION('refdir',(1.,0.,0.));
#727=DIRECTION('axis',(0.,0.,1.));
#728=DIRECTION('refdir',(1.,0.,0.));
#729=DIRECTION('axis',(0.,0.,1.));
#730=DIRECTION('refdir',(1.,0.,0.));
#731=DIRECTION('axis',(0.,0.,1.));
#732=DIRECTION('refdir',(1.,0.,0.));
#733=DIRECTION('axis',(0.,0.,1.));
#734=DIRECTION('refdir',(1.,0.,0.));
#735=DIRECTION('center_axis',(-0.923879532511288,-0.382683432365088,2.80004139974022E-16));
#736=DIRECTION('ref_axis',(3.03074297157461E-16,-1.10933564796705E-31,1.));
#737=DIRECTION('',(-0.357406744336592,0.862856209461018,-0.357406744336592));
#738=DIRECTION('',(3.03074297157461E-16,0.,1.));
#739=DIRECTION('',(0.357406744336592,-0.862856209461018,-0.357406744336592));
#740=DIRECTION('',(-3.03074297157461E-16,0.,-1.));
#741=DIRECTION('center_axis',(0.707106781186548,-0.707106781186547,-2.14305890723388E-16));
#742=DIRECTION('ref_axis',(3.20873706539061E-17,3.35161667811368E-16,-1.));
#743=DIRECTION('',(0.577350269189626,0.577350269189627,-0.577350269189625));
#744=DIRECTION('',(-5.17030462989357E-17,2.51371250858526E-16,-1.));
#745=DIRECTION('',(0.577350269189626,0.577350269189626,0.577350269189625));
#746=DIRECTION('center_axis',(0.,1.,0.));
#747=DIRECTION('ref_axis',(0.,0.,1.));
#748=DIRECTION('',(1.,0.,0.));
#749=DIRECTION('',(0.,0.,1.));
#750=DIRECTION('',(-1.,0.,-2.87622545239678E-17));
#751=DIRECTION('',(3.20873706539063E-17,0.,-1.));
#752=DIRECTION('',(0.707106781186548,0.,-0.707106781186547));
#753=DIRECTION('',(1.9966820455959E-16,0.,-1.));
#754=DIRECTION('',(-0.707106781186548,0.,-0.707106781186547));
#755=DIRECTION('',(3.20873706539063E-17,0.,-1.));
#756=DIRECTION('center_axis',(-1.,0.,-3.20873706539063E-17));
#757=DIRECTION('ref_axis',(3.20873706539063E-17,0.,-1.));
#758=DIRECTION('',(0.,1.,0.));
#759=DIRECTION('',(-3.20873706539063E-17,0.,1.));
#760=DIRECTION('',(0.,-1.,0.));
#761=DIRECTION('center_axis',(0.707106781186548,0.707106781186547,1.41186741431429E-16));
#762=DIRECTION('ref_axis',(-3.20873706539063E-17,-1.67580833905684E-16,
1.));
#763=DIRECTION('',(0.577350269189626,-0.577350269189626,-0.577350269189626));
#764=DIRECTION('',(-5.17030462989357E-17,2.51371250858526E-16,-1.));
#765=DIRECTION('',(-0.577350269189626,0.577350269189626,-0.577350269189626));
#766=DIRECTION('center_axis',(0.707106781186548,0.707106781186547,2.14305890723388E-16));
#767=DIRECTION('ref_axis',(-3.20873706539061E-17,3.35161667811368E-16,-1.));
#768=DIRECTION('',(0.,-3.03074297157462E-16,1.));
#769=DIRECTION('',(-0.577350269189626,0.577350269189627,-0.577350269189625));
#770=DIRECTION('',(5.17030462989357E-17,2.51371250858526E-16,-1.));
#771=DIRECTION('',(0.577350269189626,-0.577350269189626,-0.577350269189625));
#772=DIRECTION('center_axis',(0.707106781186547,0.,0.707106781186548));
#773=DIRECTION('ref_axis',(0.,1.,0.));
#774=DIRECTION('',(0.,-1.,0.));
#775=DIRECTION('',(0.577350269189626,0.577350269189626,-0.577350269189626));
#776=DIRECTION('center_axis',(0.707106781186548,-0.707106781186547,-1.41186741431429E-16));
#777=DIRECTION('ref_axis',(3.20873706539063E-17,-1.67580833905684E-16,1.));
#778=DIRECTION('',(0.,1.9966820455959E-16,-1.));
#779=DIRECTION('',(0.577350269189626,0.577350269189626,0.577350269189626));
#780=DIRECTION('center_axis',(0.707106781186547,5.23364152894591E-16,-0.707106781186548));
#781=DIRECTION('ref_axis',(-3.45126646034193E-31,-1.,-7.40148683083437E-16));
#782=DIRECTION('',(0.,1.,7.40148683083437E-16));
#783=DIRECTION('center_axis',(1.,0.,0.));
#784=DIRECTION('ref_axis',(0.,0.,1.));
#785=DIRECTION('',(0.,1.,0.));
#786=DIRECTION('',(0.,0.,-1.));
#787=DIRECTION('',(0.,-1.,0.));
#788=DIRECTION('center_axis',(0.707106781186547,0.,-0.707106781186548));
#789=DIRECTION('ref_axis',(0.,1.,0.));
#790=DIRECTION('',(-0.577350269189626,-0.577350269189626,-0.577350269189625));
#791=DIRECTION('',(0.707106781186548,0.,0.707106781186547));
#792=DIRECTION('center_axis',(0.707106781186548,-0.707106781186547,-2.14305890723388E-16));
#793=DIRECTION('ref_axis',(3.20873706539061E-17,3.35161667811368E-16,-1.));
#794=DIRECTION('',(-0.577350269189626,-0.577350269189627,0.577350269189625));
#795=DIRECTION('',(3.03074297157461E-16,0.,1.));
#796=DIRECTION('center_axis',(0.707106781186547,-5.23364152894591E-16,0.707106781186548));
#797=DIRECTION('ref_axis',(3.45126646034193E-31,-1.,-7.40148683083437E-16));
#798=DIRECTION('',(2.37494251330988E-32,-1.,-7.40148683083437E-16));
#799=DIRECTION('',(-0.707106781186548,0.,0.707106781186547));
#800=DIRECTION('center_axis',(-1.,0.,-3.20873706539063E-17));
#801=DIRECTION('ref_axis',(3.20873706539063E-17,0.,-1.));
#802=DIRECTION('',(0.,1.,0.));
#803=DIRECTION('',(-3.20873706539063E-17,0.,1.));
#804=DIRECTION('center_axis',(-2.87622545239678E-17,0.,1.));
#805=DIRECTION('ref_axis',(-1.,0.,-2.87622545239678E-17));
#806=DIRECTION('',(1.,0.,2.87622545239678E-17));
#807=DIRECTION('center_axis',(0.,0.,-1.));
#808=DIRECTION('ref_axis',(1.,0.,0.));
#809=DIRECTION('',(-1.,0.,0.));
#810=DIRECTION('center_axis',(0.707106781186548,0.707106781186547,2.14305890723388E-16));
#811=DIRECTION('ref_axis',(-3.20873706539061E-17,3.35161667811368E-16,-1.));
#812=DIRECTION('',(0.,3.03074297157462E-16,-1.));
#813=DIRECTION('',(-0.577350269189626,0.577350269189626,0.577350269189625));
#814=DIRECTION('',(5.17030462989357E-17,2.51371250858526E-16,-1.));
#815=DIRECTION('',(-0.577350269189626,0.577350269189627,-0.577350269189625));
#816=DIRECTION('center_axis',(0.707106781186547,0.,0.707106781186548));
#817=DIRECTION('ref_axis',(0.,1.,0.));
#818=DIRECTION('',(0.,1.,0.));
#819=DIRECTION('',(-0.577350269189626,-0.577350269189626,0.577350269189626));
#820=DIRECTION('center_axis',(0.707106781186548,-0.707106781186547,-1.41186741431429E-16));
#821=DIRECTION('ref_axis',(3.20873706539063E-17,-1.67580833905684E-16,1.));
#822=DIRECTION('',(0.,-1.9966820455959E-16,1.));
#823=DIRECTION('',(-0.577350269189626,-0.577350269189626,-0.577350269189626));
#824=DIRECTION('center_axis',(0.707106781186547,5.23364152894591E-16,-0.707106781186548));
#825=DIRECTION('ref_axis',(-3.45126646034193E-31,-1.,-7.40148683083437E-16));
#826=DIRECTION('',(0.,-1.,-7.40148683083437E-16));
#827=DIRECTION('center_axis',(0.,1.,0.));
#828=DIRECTION('ref_axis',(-1.,0.,0.));
#829=DIRECTION('',(0.,0.,-1.));
#830=DIRECTION('',(1.,0.,0.));
#831=DIRECTION('',(-1.62183574264188E-33,0.,1.));
#832=DIRECTION('',(-1.,0.,0.));
#833=DIRECTION('',(1.,0.,2.87622545239678E-17));
#834=DIRECTION('',(0.,0.,-1.));
#835=DIRECTION('',(-1.,0.,0.));
#836=DIRECTION('',(-3.20873706539063E-17,0.,1.));
#837=DIRECTION('',(-3.20873706539063E-17,0.,1.));
#838=DIRECTION('',(-3.20873706539063E-17,0.,1.));
#839=DIRECTION('center_axis',(1.,0.,0.));
#840=DIRECTION('ref_axis',(0.,0.,1.));
#841=DIRECTION('',(0.,-1.,0.));
#842=DIRECTION('',(0.,0.,1.));
#843=DIRECTION('',(0.,-1.,0.));
#844=DIRECTION('center_axis',(0.707106781186548,0.707106781186547,1.41186741431429E-16));
#845=DIRECTION('ref_axis',(-3.20873706539063E-17,-1.67580833905684E-16,
1.));
#846=DIRECTION('',(0.577350269189626,-0.577350269189626,0.577350269189626));
#847=DIRECTION('',(0.577350269189626,-0.577350269189626,-0.577350269189626));
#848=DIRECTION('center_axis',(0.707106781186547,0.,-0.707106781186548));
#849=DIRECTION('ref_axis',(0.,1.,0.));
#850=DIRECTION('',(0.,1.,0.));
#851=DIRECTION('',(0.707106781186548,0.,0.707106781186547));
#852=DIRECTION('center_axis',(0.707106781186547,-5.23364152894591E-16,0.707106781186548));
#853=DIRECTION('ref_axis',(3.45126646034193E-31,-1.,-7.40148683083437E-16));
#854=DIRECTION('',(2.37494251330988E-32,-1.,-7.40148683083437E-16));
#855=DIRECTION('',(-0.707106781186548,0.,0.707106781186547));
#856=DIRECTION('center_axis',(-1.,0.,-3.20873706539063E-17));
#857=DIRECTION('ref_axis',(3.20873706539063E-17,0.,-1.));
#858=DIRECTION('',(0.,-1.,0.));
#859=DIRECTION('',(3.20873706539063E-17,0.,-1.));
#860=DIRECTION('center_axis',(-1.,0.,-3.20873706539063E-17));
#861=DIRECTION('ref_axis',(3.20873706539063E-17,0.,-1.));
#862=DIRECTION('',(3.20873706539063E-17,0.,-1.));
#863=DIRECTION('',(0.,-1.,0.));
#864=DIRECTION('center_axis',(-2.87622545239678E-17,0.,1.));
#865=DIRECTION('ref_axis',(-1.,0.,-2.87622545239678E-17));
#866=DIRECTION('',(-1.,0.,-2.87622545239678E-17));
#867=DIRECTION('center_axis',(0.,0.,-1.));
#868=DIRECTION('ref_axis',(1.,0.,0.));
#869=DIRECTION('',(1.,0.,0.));
#870=DIRECTION('center_axis',(0.,-1.,0.));
#871=DIRECTION('ref_axis',(0.,0.,-1.));
#872=DIRECTION('center_axis',(-1.,0.,-1.62183574264188E-33));
#873=DIRECTION('ref_axis',(-1.62183574264188E-33,0.,1.));
#874=DIRECTION('',(0.,1.,0.));
#875=DIRECTION('',(-1.62183574264188E-33,0.,1.));
#876=DIRECTION('',(0.,1.,0.));
#877=DIRECTION('center_axis',(0.,0.,-1.));
#878=DIRECTION('ref_axis',(-1.,0.,0.));
#879=DIRECTION('',(-1.,0.,0.));
#880=DIRECTION('',(0.,1.,0.));
#881=DIRECTION('center_axis',(1.,0.,0.));
#882=DIRECTION('ref_axis',(0.,0.,-1.));
#883=DIRECTION('',(0.,0.,-1.));
#884=DIRECTION('',(0.,1.,0.));
#885=DIRECTION('center_axis',(0.,0.,1.));
#886=DIRECTION('ref_axis',(1.,0.,0.));
#887=DIRECTION('',(1.,0.,0.));
#888=DIRECTION('center_axis',(0.,1.,0.));
#889=DIRECTION('ref_axis',(0.,0.,1.));
#890=DIRECTION('',(0.,0.,1.));
#891=DIRECTION('',(1.,0.,0.));
#892=DIRECTION('',(0.,0.,1.));
#893=DIRECTION('',(1.,0.,0.));
#894=DIRECTION('',(4.3229847328169E-15,1.83999445119225E-14,1.));
#895=DIRECTION('',(1.,2.15105711023108E-16,-4.32298473281691E-15));
#896=DIRECTION('',(0.,0.,1.));
#897=DIRECTION('',(1.,0.,0.));
#898=DIRECTION('',(0.,0.,1.));
#899=DIRECTION('',(1.,0.,0.));
#900=CARTESIAN_POINT('',(0.,0.,0.));
#901=CARTESIAN_POINT('',(0.,0.,0.));
#902=CARTESIAN_POINT('',(0.,0.,0.));
#903=CARTESIAN_POINT('',(0.,0.,0.));
#904=CARTESIAN_POINT('',(0.,0.,0.));
#905=CARTESIAN_POINT('',(0.,0.,0.));
#906=CARTESIAN_POINT('Origin',(2.21213203435596,22.212132034356,-25.625));
#907=CARTESIAN_POINT('',(2.3,22.,-31.65));
#908=CARTESIAN_POINT('',(2.12426406871193,22.4242640687119,-31.8257359312881));
#909=CARTESIAN_POINT('',(2.10726392166439,22.4653060542764,-31.8427360783356));
#910=CARTESIAN_POINT('',(2.30000000000001,22.,-6.35000000000002));
#911=CARTESIAN_POINT('',(2.3,22.,-25.625));
#912=CARTESIAN_POINT('',(2.12426406871193,22.4242640687119,-6.17426406871194));
#913=CARTESIAN_POINT('',(3.41612458809001,19.305436882135,-7.46612458809002));
#914=CARTESIAN_POINT('',(2.12426406871193,22.4242640687119,-25.625));
#915=CARTESIAN_POINT('Origin',(1.7,22.,-32.25));
#916=CARTESIAN_POINT('',(3.2,23.5,-7.25000000000001));
#917=CARTESIAN_POINT('',(6.11666666666666,26.4166666666667,-10.1666666666667));
#918=CARTESIAN_POINT('',(3.2,23.5,-30.75));
#919=CARTESIAN_POINT('',(3.2,23.5,-19.));
#920=CARTESIAN_POINT('',(2.2,22.5,-31.75));
#921=CARTESIAN_POINT('Origin',(21.,25.,-19.));
#922=CARTESIAN_POINT('',(3.2,25.,-34.8));
#923=CARTESIAN_POINT('',(38.8,25.,-34.8));
#924=CARTESIAN_POINT('',(11.35,25.,-34.8));
#925=CARTESIAN_POINT('',(38.8,25.,-3.2));
#926=CARTESIAN_POINT('',(38.8,25.,-27.65));
#927=CARTESIAN_POINT('',(3.2,25.,-3.2));
#928=CARTESIAN_POINT('',(30.65,25.,-3.2));
#929=CARTESIAN_POINT('',(3.2,25.,-5.12867965644037));
#930=CARTESIAN_POINT('',(3.2,25.,-10.35));
#931=CARTESIAN_POINT('',(3.82132034355964,25.,-5.75000000000001));
#932=CARTESIAN_POINT('',(10.8981601717798,25.,-12.8268398282202));
#933=CARTESIAN_POINT('',(3.82132034355964,25.,-32.25));
#934=CARTESIAN_POINT('',(3.82132034355964,25.,-12.375));
#935=CARTESIAN_POINT('',(3.2,25.,-32.8713203435597));
#936=CARTESIAN_POINT('',(10.8981601717798,25.,-25.1731601717798));
#937=CARTESIAN_POINT('',(3.2,25.,-10.35));
#938=CARTESIAN_POINT('Origin',(3.2,25.,-1.7));
#939=CARTESIAN_POINT('',(3.2,22.,-32.8713203435597));
#940=CARTESIAN_POINT('',(3.2,25.,-32.8713203435597));
#941=CARTESIAN_POINT('',(3.2,22.,-34.8));
#942=CARTESIAN_POINT('',(3.2,22.,-10.35));
#943=CARTESIAN_POINT('',(3.2,25.,-34.8));
#944=CARTESIAN_POINT('Origin',(2.76066017177982,26.0606601717798,-5.75000000000001));
#945=CARTESIAN_POINT('',(5.32132034355964,23.5,-7.25000000000001));
#946=CARTESIAN_POINT('',(3.6142135623731,25.2071067811865,-5.54289321881346));
#947=CARTESIAN_POINT('',(5.32132034355964,23.5,-30.75));
#948=CARTESIAN_POINT('',(5.32132034355964,23.5,-19.));
#949=CARTESIAN_POINT('',(7.53088022903976,21.2904401145199,-28.5404401145199));
#950=CARTESIAN_POINT('Origin',(40.2393398282202,20.9393398282202,-32.25));
#951=CARTESIAN_POINT('',(38.8,22.3786796564404,-6.12867965644037));
#952=CARTESIAN_POINT('',(38.8,22.3786796564404,-31.8713203435597));
#953=CARTESIAN_POINT('',(38.8,22.3786796564404,-34.275));
#954=CARTESIAN_POINT('',(37.6786796564404,23.5,-7.25000000000001));
#955=CARTESIAN_POINT('',(35.4691197709602,25.7095598854801,-9.45955988548012));
#956=CARTESIAN_POINT('',(37.6786796564404,23.5,-30.75));
#957=CARTESIAN_POINT('',(37.6786796564404,23.5,-19.));
#958=CARTESIAN_POINT('',(39.3857864376269,21.7928932188135,-32.4571067811866));
#959=CARTESIAN_POINT('Origin',(40.2393398282202,25.,-33.3106601717798));
#960=CARTESIAN_POINT('',(38.8,24.6213203435596,-31.8713203435597));
#961=CARTESIAN_POINT('',(38.8,25.,-31.8713203435597));
#962=CARTESIAN_POINT('',(35.4691197709602,21.2904401145199,-28.5404401145199));
#963=CARTESIAN_POINT('Origin',(40.2393398282202,26.0606601717798,-5.75000000000001));
#964=CARTESIAN_POINT('',(38.8,24.6213203435596,-6.12867965644037));
#965=CARTESIAN_POINT('',(38.8,24.6213203435597,-21.025));
#966=CARTESIAN_POINT('',(39.3857864376269,25.2071067811865,-5.54289321881346));
#967=CARTESIAN_POINT('Origin',(40.2393398282202,22.,-4.68933982822019));
#968=CARTESIAN_POINT('',(38.8,23.5,-6.12867965644037));
#969=CARTESIAN_POINT('Origin',(38.8,25.,-36.3));
#970=CARTESIAN_POINT('',(38.8,22.,-34.8));
#971=CARTESIAN_POINT('',(38.8,25.,-34.8));
#972=CARTESIAN_POINT('',(38.8,22.,-3.2));
#973=CARTESIAN_POINT('',(38.8,22.,-27.65));
#974=CARTESIAN_POINT('',(38.8,25.,-3.2));
#975=CARTESIAN_POINT('Origin',(2.76066017177982,25.,-33.3106601717798));
#976=CARTESIAN_POINT('',(3.82132034355964,22.,-32.25));
#977=CARTESIAN_POINT('',(3.6142135623731,21.7928932188135,-32.4571067811866));
#978=CARTESIAN_POINT('',(10.8981601717798,22.,-25.1731601717798));
#979=CARTESIAN_POINT('Origin',(2.76066017177982,20.9393398282202,-32.25));
#980=CARTESIAN_POINT('',(3.82132034355964,22.,-5.75000000000002));
#981=CARTESIAN_POINT('',(7.53088022903976,25.7095598854801,-9.45955988548012));
#982=CARTESIAN_POINT('',(3.82132034355964,22.,-25.625));
#983=CARTESIAN_POINT('Origin',(2.76066017177982,22.,-4.68933982822019));
#984=CARTESIAN_POINT('',(3.2,22.,-5.12867965644037));
#985=CARTESIAN_POINT('',(3.2,23.5,-5.12867965644037));
#986=CARTESIAN_POINT('',(10.8981601717798,22.,-12.8268398282202));
#987=CARTESIAN_POINT('Origin',(3.2,25.,-1.7));
#988=CARTESIAN_POINT('',(3.2,22.,-3.2));
#989=CARTESIAN_POINT('',(3.2,25.,-3.2));
#990=CARTESIAN_POINT('',(3.2,22.,-10.35));
#991=CARTESIAN_POINT('Origin',(40.3,25.,-3.2));
#992=CARTESIAN_POINT('',(30.65,22.,-3.2));
#993=CARTESIAN_POINT('Origin',(1.7,25.,-34.8));
#994=CARTESIAN_POINT('',(11.35,22.,-34.8));
#995=CARTESIAN_POINT('Origin',(41.3,22.,-32.25));
#996=CARTESIAN_POINT('',(40.3,23.,-6.75));
#997=CARTESIAN_POINT('',(40.3,23.,-31.25));
#998=CARTESIAN_POINT('',(40.3,23.,-34.275));
#999=CARTESIAN_POINT('',(39.8,23.5,-30.75));
#1000=CARTESIAN_POINT('',(40.8,22.5,-31.75));
#1001=CARTESIAN_POINT('',(39.8,23.5,-7.25000000000001));
#1002=CARTESIAN_POINT('',(39.8,23.5,-19.));
#1003=CARTESIAN_POINT('',(36.8833333333333,26.4166666666667,-10.1666666666667));
#1004=CARTESIAN_POINT('Origin',(41.3,25.,-32.25));
#1005=CARTESIAN_POINT('',(40.3,24.,-31.25));
#1006=CARTESIAN_POINT('',(40.3,25.,-31.25));
#1007=CARTESIAN_POINT('',(36.8833333333333,20.5833333333333,-27.8333333333334));
#1008=CARTESIAN_POINT('Origin',(41.3,25.,-5.75000000000001));
#1009=CARTESIAN_POINT('',(40.3,24.,-6.75000000000001));
#1010=CARTESIAN_POINT('',(40.3,24.,-21.025));
#1011=CARTESIAN_POINT('',(40.8,24.5,-6.25000000000001));
#1012=CARTESIAN_POINT('Origin',(41.3,22.,-5.75000000000001));
#1013=CARTESIAN_POINT('',(40.3,23.5,-6.75000000000001));
#1014=CARTESIAN_POINT('Origin',(21.,25.,-19.));
#1015=CARTESIAN_POINT('',(42.,25.,0.));
#1016=CARTESIAN_POINT('',(42.,25.,-38.));
#1017=CARTESIAN_POINT('',(42.,25.,0.));
#1018=CARTESIAN_POINT('',(0.,25.,0.));
#1019=CARTESIAN_POINT('',(0.,25.,0.));
#1020=CARTESIAN_POINT('',(6.16297582203915E-32,25.,-38.));
#1021=CARTESIAN_POINT('',(6.16297582203915E-32,25.,-38.));
#1022=CARTESIAN_POINT('',(42.,25.,-38.));
#1023=CARTESIAN_POINT('',(1.7,25.,-1.7));
#1024=CARTESIAN_POINT('',(40.3,25.,-1.7));
#1025=CARTESIAN_POINT('',(30.65,25.,-1.7));
#1026=CARTESIAN_POINT('',(40.3,25.,-36.3));
#1027=CARTESIAN_POINT('',(40.3,25.,-27.65));
#1028=CARTESIAN_POINT('',(1.7,25.,-36.3));
#1029=CARTESIAN_POINT('',(11.35,25.,-36.3));
#1030=CARTESIAN_POINT('',(1.7,25.,-32.25));
#1031=CARTESIAN_POINT('',(1.7,25.,-10.35));
#1032=CARTESIAN_POINT('',(1.7,25.,-5.75000000000001));
#1033=CARTESIAN_POINT('',(1.7,25.,-10.35));
#1034=CARTESIAN_POINT('',(1.7,25.,-10.35));
#1035=CARTESIAN_POINT('Origin',(40.3,25.,-36.3));
#1036=CARTESIAN_POINT('',(40.3,22.,-1.7));
#1037=CARTESIAN_POINT('',(40.3,25.,-1.7));
#1038=CARTESIAN_POINT('',(40.3,22.,-36.3));
#1039=CARTESIAN_POINT('',(40.3,22.,-36.3));
#1040=CARTESIAN_POINT('',(40.3,25.,-36.3));
#1041=CARTESIAN_POINT('Origin',(1.7,25.,-5.75000000000001));
#1042=CARTESIAN_POINT('',(6.11666666666667,20.5833333333333,-27.8333333333334));
#1043=CARTESIAN_POINT('',(2.2,24.5,-6.25000000000001));
#1044=CARTESIAN_POINT('Origin',(1.7,25.,-32.25));
#1045=CARTESIAN_POINT('',(1.7,22.,-32.25));
#1046=CARTESIAN_POINT('',(1.7,25.,-32.25));
#1047=CARTESIAN_POINT('',(9.8375,22.,-24.1125));
#1048=CARTESIAN_POINT('Origin',(1.7,22.,-5.75000000000001));
#1049=CARTESIAN_POINT('',(1.7,22.,-5.75000000000001));
#1050=CARTESIAN_POINT('',(1.7,23.5,-5.75000000000001));
#1051=CARTESIAN_POINT('',(9.8375,22.,-13.8875));
#1052=CARTESIAN_POINT('Origin',(1.7,25.,-1.7));
#1053=CARTESIAN_POINT('',(1.7,22.,-36.3));
#1054=CARTESIAN_POINT('',(1.7,25.,-36.3));
#1055=CARTESIAN_POINT('',(1.7,22.,-1.7));
#1056=CARTESIAN_POINT('Origin',(1.7,25.,-1.7));
#1057=CARTESIAN_POINT('',(1.7,22.,-1.7));
#1058=CARTESIAN_POINT('',(1.7,22.,-1.7));
#1059=CARTESIAN_POINT('',(1.7,25.,-1.7));
#1060=CARTESIAN_POINT('Origin',(40.3,25.,-1.7));
#1061=CARTESIAN_POINT('',(40.3,22.,-1.7));
#1062=CARTESIAN_POINT('Origin',(1.7,25.,-36.3));
#1063=CARTESIAN_POINT('',(1.7,22.,-36.3));
#1064=CARTESIAN_POINT('Origin',(21.,22.,-19.));
#1065=CARTESIAN_POINT('Origin',(6.16297582203915E-32,25.,-38.));
#1066=CARTESIAN_POINT('',(0.,26.5,0.));
#1067=CARTESIAN_POINT('',(0.,25.,0.));
#1068=CARTESIAN_POINT('',(6.16297582203915E-32,26.5,-38.));
#1069=CARTESIAN_POINT('',(6.16297582203915E-32,26.5,-38.));
#1070=CARTESIAN_POINT('',(6.16297582203915E-32,25.,-38.));
#1071=CARTESIAN_POINT('Origin',(42.,25.,-38.));
#1072=CARTESIAN_POINT('',(42.,26.5,-38.));
#1073=CARTESIAN_POINT('',(42.,26.5,-38.));
#1074=CARTESIAN_POINT('',(42.,25.,-38.));
#1075=CARTESIAN_POINT('Origin',(42.,25.,0.));
#1076=CARTESIAN_POINT('',(42.,26.5,0.));
#1077=CARTESIAN_POINT('',(42.,26.5,0.));
#1078=CARTESIAN_POINT('',(42.,25.,0.));
#1079=CARTESIAN_POINT('Origin',(0.,25.,0.));
#1080=CARTESIAN_POINT('',(0.,26.5,0.));
#1081=CARTESIAN_POINT('Origin',(21.,26.5,-19.));
#1082=CARTESIAN_POINT('',(0.,0.,0.));
#1083=CARTESIAN_POINT('',(0.,0.,0.));
#1084=CARTESIAN_POINT('',(-1.40384540306131,-4.08915753763504,46.883853165153));
#1085=CARTESIAN_POINT('',(0.,0.,0.));
#1086=CARTESIAN_POINT('',(0.,0.,0.));
#1087=UNCERTAINTY_MEASURE_WITH_UNIT(LENGTH_MEASURE(0.01),#1101,
'DISTANCE_ACCURACY_VALUE',
'Maximum model space distance between geometric entities at asserted c
onnectivities');
#1088=UNCERTAINTY_MEASURE_WITH_UNIT(LENGTH_MEASURE(0.01),#1101,
'DISTANCE_ACCURACY_VALUE',
'Maximum model space distance between geometric entities at asserted c
onnectivities');
#1089=UNCERTAINTY_MEASURE_WITH_UNIT(LENGTH_MEASURE(0.01),#1101,
'DISTANCE_ACCURACY_VALUE',
'Maximum model space distance between geometric entities at asserted c
onnectivities');
#1090=UNCERTAINTY_MEASURE_WITH_UNIT(LENGTH_MEASURE(0.01),#1101,
'DISTANCE_ACCURACY_VALUE',
'Maximum model space distance between geometric entities at asserted c
onnectivities');
#1091=UNCERTAINTY_MEASURE_WITH_UNIT(LENGTH_MEASURE(0.01),#1101,
'DISTANCE_ACCURACY_VALUE',
'Maximum model space distance between geometric entities at asserted c
onnectivities');
#1092=UNCERTAINTY_MEASURE_WITH_UNIT(LENGTH_MEASURE(0.01),#1101,
'DISTANCE_ACCURACY_VALUE',
'Maximum model space distance between geometric entities at asserted c
onnectivities');
#1093=UNCERTAINTY_MEASURE_WITH_UNIT(LENGTH_MEASURE(0.01),#1101,
'DISTANCE_ACCURACY_VALUE',
'Maximum model space distance between geometric entities at asserted c
onnectivities');
#1094=(
GEOMETRIC_REPRESENTATION_CONTEXT(3)
GLOBAL_UNCERTAINTY_ASSIGNED_CONTEXT((#1087))
GLOBAL_UNIT_ASSIGNED_CONTEXT((#1101,#1103,#1104))
REPRESENTATION_CONTEXT('','3D')
);
#1095=(
GEOMETRIC_REPRESENTATION_CONTEXT(3)
GLOBAL_UNCERTAINTY_ASSIGNED_CONTEXT((#1088))
GLOBAL_UNIT_ASSIGNED_CONTEXT((#1101,#1103,#1104))
REPRESENTATION_CONTEXT('','3D')
);
#1096=(
GEOMETRIC_REPRESENTATION_CONTEXT(3)
GLOBAL_UNCERTAINTY_ASSIGNED_CONTEXT((#1089))
GLOBAL_UNIT_ASSIGNED_CONTEXT((#1101,#1103,#1104))
REPRESENTATION_CONTEXT('','3D')
);
#1097=(
GEOMETRIC_REPRESENTATION_CONTEXT(3)
GLOBAL_UNCERTAINTY_ASSIGNED_CONTEXT((#1090))
GLOBAL_UNIT_ASSIGNED_CONTEXT((#1101,#1103,#1104))
REPRESENTATION_CONTEXT('','3D')
);
#1098=(
GEOMETRIC_REPRESENTATION_CONTEXT(3)
GLOBAL_UNCERTAINTY_ASSIGNED_CONTEXT((#1091))
GLOBAL_UNIT_ASSIGNED_CONTEXT((#1101,#1103,#1104))
REPRESENTATION_CONTEXT('','3D')
);
#1099=(
GEOMETRIC_REPRESENTATION_CONTEXT(3)
GLOBAL_UNCERTAINTY_ASSIGNED_CONTEXT((#1092))
GLOBAL_UNIT_ASSIGNED_CONTEXT((#1101,#1103,#1104))
REPRESENTATION_CONTEXT('','3D')
);
#1100=(
GEOMETRIC_REPRESENTATION_CONTEXT(3)
GLOBAL_UNCERTAINTY_ASSIGNED_CONTEXT((#1093))
GLOBAL_UNIT_ASSIGNED_CONTEXT((#1101,#1103,#1104))
REPRESENTATION_CONTEXT('','3D')
);
#1101=(
LENGTH_UNIT()
NAMED_UNIT(*)
SI_UNIT(.MILLI.,.METRE.)
);
#1102=(
LENGTH_UNIT()
NAMED_UNIT(*)
SI_UNIT($,.METRE.)
);
#1103=(
NAMED_UNIT(*)
PLANE_ANGLE_UNIT()
SI_UNIT($,.RADIAN.)
);
#1104=(
NAMED_UNIT(*)
SI_UNIT($,.STERADIAN.)
SOLID_ANGLE_UNIT()
);
#1105=SHAPE_DEFINITION_REPRESENTATION(#1111,#1122);
#1106=SHAPE_DEFINITION_REPRESENTATION(#1112,#1123);
#1107=SHAPE_DEFINITION_REPRESENTATION(#1113,#1124);
#1108=SHAPE_DEFINITION_REPRESENTATION(#1114,#1125);
#1109=SHAPE_DEFINITION_REPRESENTATION(#1115,#1126);
#1110=SHAPE_DEFINITION_REPRESENTATION(#1116,#1127);
#1111=PRODUCT_DEFINITION_SHAPE('',$,#1129);
#1112=PRODUCT_DEFINITION_SHAPE('',$,#1130);
#1113=PRODUCT_DEFINITION_SHAPE('',$,#1131);
#1114=PRODUCT_DEFINITION_SHAPE('',$,#1132);
#1115=PRODUCT_DEFINITION_SHAPE('',$,#1133);
#1116=PRODUCT_DEFINITION_SHAPE('',$,#1134);
#1117=PRODUCT_DEFINITION_SHAPE($,$,#26);
#1118=PRODUCT_DEFINITION_SHAPE($,$,#27);
#1119=PRODUCT_DEFINITION_SHAPE($,$,#28);
#1120=PRODUCT_DEFINITION_SHAPE($,$,#29);
#1121=PRODUCT_DEFINITION_SHAPE($,$,#30);
#1122=SHAPE_REPRESENTATION('',(#677,#722),#1094);
#1123=SHAPE_REPRESENTATION('',(#678,#721),#1095);
#1124=SHAPE_REPRESENTATION('',(#679,#720),#1096);
#1125=SHAPE_REPRESENTATION('',(#680,#719),#1097);
#1126=SHAPE_REPRESENTATION('',(#681,#718),#1098);
#1127=SHAPE_REPRESENTATION('',(#682),#1099);
#1128=PRODUCT_DEFINITION_CONTEXT('part definition',#1148,'design');
#1129=PRODUCT_DEFINITION('2026-05-19-17-56-51-566','Top case',#1135,#1128);
#1130=PRODUCT_DEFINITION('2026-05-19-17-56-51-567','Enclosure (1)',#1136,
#1128);
#1131=PRODUCT_DEFINITION('2026-05-19-17-56-51-568','Case',#1137,#1128);
#1132=PRODUCT_DEFINITION('2026-05-19-17-56-51-569','top case',#1138,#1128);
#1133=PRODUCT_DEFINITION('2026-05-19-17-56-51-570','Enclosure',#1139,#1128);
#1134=PRODUCT_DEFINITION('2026-05-19-17-56-51-571','Top Cover',#1140,#1128);
#1135=PRODUCT_DEFINITION_FORMATION('',$,#1150);
#1136=PRODUCT_DEFINITION_FORMATION('',$,#1151);
#1137=PRODUCT_DEFINITION_FORMATION('',$,#1152);
#1138=PRODUCT_DEFINITION_FORMATION('',$,#1153);
#1139=PRODUCT_DEFINITION_FORMATION('',$,#1154);
#1140=PRODUCT_DEFINITION_FORMATION('',$,#1155);
#1141=PRODUCT_RELATED_PRODUCT_CATEGORY('Top case','Top case',(#1150));
#1142=PRODUCT_RELATED_PRODUCT_CATEGORY('Enclosure (1)','Enclosure (1)',
(#1151));
#1143=PRODUCT_RELATED_PRODUCT_CATEGORY('Case','Case',(#1152));
#1144=PRODUCT_RELATED_PRODUCT_CATEGORY('top case','top case',(#1153));
#1145=PRODUCT_RELATED_PRODUCT_CATEGORY('Enclosure','Enclosure',(#1154));
#1146=PRODUCT_RELATED_PRODUCT_CATEGORY('Top Cover','Top Cover',(#1155));
#1147=APPLICATION_PROTOCOL_DEFINITION('international standard',
'automotive_design',2009,#1148);
#1148=APPLICATION_CONTEXT(
'Core Data for Automotive Mechanical Design Process');
#1149=PRODUCT_CONTEXT('part definition',#1148,'mechanical');
#1150=PRODUCT('2026-05-19-17-56-51-566','Top case',$,(#1149));
#1151=PRODUCT('2026-05-19-17-56-51-567','Enclosure (1)',$,(#1149));
#1152=PRODUCT('2026-05-19-17-56-51-568','Case',$,(#1149));
#1153=PRODUCT('2026-05-19-17-56-51-569','top case',$,(#1149));
#1154=PRODUCT('2026-05-19-17-56-51-570','Enclosure',$,(#1149));
#1155=PRODUCT('2026-05-19-17-56-51-571','Top Cover',$,(#1149));
#1156=PRESENTATION_STYLE_ASSIGNMENT((#1158));
#1157=PRESENTATION_STYLE_ASSIGNMENT((#1159));
#1158=SURFACE_STYLE_USAGE(.BOTH.,#1160);
#1159=SURFACE_STYLE_USAGE(.BOTH.,#1161);
#1160=SURFACE_SIDE_STYLE('',(#1162));
#1161=SURFACE_SIDE_STYLE('',(#1163));
#1162=SURFACE_STYLE_FILL_AREA(#1164);
#1163=SURFACE_STYLE_FILL_AREA(#1165);
#1164=FILL_AREA_STYLE('Steel - Satin',(#1166));
#1165=FILL_AREA_STYLE('Opaque(160,160,160)',(#1167));
#1166=FILL_AREA_STYLE_COLOUR('Steel - Satin',#1168);
#1167=FILL_AREA_STYLE_COLOUR('Opaque(160,160,160)',#1169);
#1168=COLOUR_RGB('Steel - Satin',0.627450980392157,0.627450980392157,0.627450980392157);
#1169=COLOUR_RGB('Opaque(160,160,160)',0.627450980392157,0.627450980392157,
0.627450980392157);
ENDSEC;
END-ISO-10303-21;
